  0
SECTION
  2
HEADER
  9
$ACADVER
  1
AC1014
  9
$HANDSEED
  5
FFFF
  9
$MEASUREMENT
 70
     1
  0
ENDSEC
  0
SECTION
  2
TABLES
  0
TABLE
  2
VPORT
  5
8
330
0
100
AcDbSymbolTable
 70
     4
  0
VPORT
  5
2E
330
8
100
AcDbSymbolTableRecord
100
AcDbViewportTableRecord
  2
*ACTIVE
 70
     0
 10
0.0
 20
0.0
 11
1.0
 21
1.0
 12
210.0
 22
148.5
 13
0.0
 23
0.0
 14
10.0
 24
10.0
 15
10.0
 25
10.0
 16
0.0
 26
0.0
 36
1.0
 17
0.0
 27
0.0
 37
0.0
 40
341.0
 41
1.24
 42
50.0
 43
0.0
 44
0.0
 50
0.0
 51
0.0
 71
     0
 72
   100
 73
     1
 74
     3
 75
     0
 76
     0
 77
     0
 78
     0
  0
ENDTAB
  0
TABLE
  2
LTYPE
  5
5
330
0
100
AcDbSymbolTable
 70
     1
  0
LTYPE
  5
14
330
5
100
AcDbSymbolTableRecord
100
AcDbLinetypeTableRecord
  2
BYBLOCK
 70
     0
  3

 72
    65
 73
     0
 40
0.0
  0
LTYPE
  5
15
330
5
100
AcDbSymbolTableRecord
100
AcDbLinetypeTableRecord
  2
BYLAYER
 70
     0
  3

 72
    65
 73
     0
 40
0.0
  0
LTYPE
  5
16
330
5
100
AcDbSymbolTableRecord
100
AcDbLinetypeTableRecord
  2
CONTINUOUS
 70
     0
  3
Solid line
 72
    65
 73
     0
 40
0.0
  0
ENDTAB
  0
TABLE
  2
LAYER
  5
2
100
AcDbSymbolTable
 70
2
  0
LAYER
  5
50
100
AcDbSymbolTableRecord
100
AcDbLayerTableRecord
  2
0
 70
0
  6
CONTINUOUS
  0
LAYER
  5
51
100
AcDbSymbolTableRecord
100
AcDbLayerTableRecord
  2
Layer_1
 70
0
  6
CONTINUOUS
  0
ENDTAB
  0
TABLE
  2
STYLE
  5
3
330
0
100
AcDbSymbolTable
 70
     1
  0
STYLE
  5
11
330
3
100
AcDbSymbolTableRecord
100
AcDbTextStyleTableRecord
  2
STANDARD
 70
     0
 40
0.0
 41
1.0
 50
0.0
 71
     0
 42
2.5
  3
txt
  4

  0
ENDTAB
  0
TABLE
  2
VIEW
  5
6
330
0
100
AcDbSymbolTable
 70
     0
  0
ENDTAB
  0
TABLE
  2
UCS
  5
7
330
0
100
AcDbSymbolTable
 70
     0
  0
ENDTAB
  0
TABLE
  2
APPID
  5
9
330
0
100
AcDbSymbolTable
 70
     2
  0
APPID
  5
12
330
9
100
AcDbSymbolTableRecord
100
AcDbRegAppTableRecord
  2
ACAD
 70
     0
  0
ENDTAB
  0
TABLE
  2
DIMSTYLE
  5
A
330
0
100
AcDbSymbolTable
 70
     1
  0
DIMSTYLE
105
27
330
A
100
AcDbSymbolTableRecord
100
AcDbDimStyleTableRecord
  2
ISO-25
 70
     0
  3

  4

  5

  6

  7

 40
1.0
 41
2.5
 42
0.625
 43
3.75
 44
1.25
 45
0.0
 46
0.0
 47
0.0
 48
0.0
140
2.5
141
2.5
142
0.0
143
0.03937007874016
144
1.0
145
0.0
146
1.0
147
0.625
 71
     0
 72
     0
 73
     0
 74
     0
 75
     0
 76
     0
 77
     1
 78
     8
170
     0
171
     3
172
     1
173
     0
174
     0
175
     0
176
     0
177
     0
178
     0
270
     2
271
     2
272
     2
273
     2
274
     3
340
11
275
     0
280
     0
281
     0
282
     0
283
     0
284
     8
285
     0
286
     0
287
     3
288
     0
  0
ENDTAB
  0
TABLE
  2
BLOCK_RECORD
  5
1
330
0
100
AcDbSymbolTable
 70
     1
  0
BLOCK_RECORD
  5
1F
330
1
100
AcDbSymbolTableRecord
100
AcDbBlockTableRecord
  2
*MODEL_SPACE
  0
BLOCK_RECORD
  5
1B
330
1
100
AcDbSymbolTableRecord
100
AcDbBlockTableRecord
  2
*PAPER_SPACE
  0
ENDTAB
  0
ENDSEC
  0
SECTION
  2
BLOCKS
  0
BLOCK
  5
20
330
1F
100
AcDbEntity
  8
0
100
AcDbBlockBegin
  2
*MODEL_SPACE
 70
     0
 10
0.0
 20
0.0
 30
0.0
  3
*MODEL_SPACE
  1

  0
ENDBLK
  5
21
330
1F
100
AcDbEntity
  8
0
100
AcDbBlockEnd
  0
BLOCK
  5
1C
330
1B
100
AcDbEntity
 67
     1
  8
0
100
AcDbBlockBegin
  2
*PAPER_SPACE
  1

  0
ENDBLK
  5
1D
330
1B
100
AcDbEntity
 67
     1
  8
0
100
AcDbBlockEnd
  0
ENDSEC
  0
SECTION
  2
ENTITIES
  0
SPLINE
  5
100
100
AcDbEntity
  8
Layer_1
 62
7
100
AcDbSpline
 70
8
 71
3
 72
8
 73
4
 74
0
 40
0
 40
0
 40
0
 40
0
 40
1
 40
1
 40
1
 40
1
 10
39.950844
 20
13.352951
 30
0.0
 10
39.950848
 20
12.713441
 30
0.0
 10
39.696689
 20
12.100123
 30
0.0
 10
39.244279
 20
11.647921
 30
0.0
  0
SPLINE
  5
101
100
AcDbEntity
  8
Layer_1
 62
7
100
AcDbSpline
 70
8
 71
3
 72
8
 73
4
 74
0
 40
0
 40
0
 40
0
 40
0
 40
1
 40
1
 40
1
 40
1
 10
39.244279
 20
11.647921
 30
0.0
 10
38.791869
 20
11.195718
 30
0.0
 10
38.178268
 20
10.941673
 30
0.0
 10
37.538462
 20
10.941672
 30
0.0
  0
SPLINE
  5
102
100
AcDbEntity
  8
Layer_1
 62
7
100
AcDbSpline
 70
8
 71
3
 72
8
 73
4
 74
0
 40
0
 40
0
 40
0
 40
0
 40
1
 40
1
 40
1
 40
1
 10
37.538462
 20
10.941672
 30
0.0
 10
36.898656
 20
10.941672
 30
0.0
 10
36.285054
 20
11.195717
 30
0.0
 10
35.832644
 20
11.647920
 30
0.0
  0
SPLINE
  5
103
100
AcDbEntity
  8
Layer_1
 62
7
100
AcDbSpline
 70
8
 71
3
 72
8
 73
4
 74
0
 40
0
 40
0
 40
0
 40
0
 40
1
 40
1
 40
1
 40
1
 10
35.832644
 20
11.647920
 30
0.0
 10
35.380234
 20
12.100123
 30
0.0
 10
35.126074
 20
12.713441
 30
0.0
 10
35.126078
 20
13.352951
 30
0.0
  0
SPLINE
  5
104
100
AcDbEntity
  8
Layer_1
 62
7
100
AcDbSpline
 70
8
 71
3
 72
8
 73
4
 74
0
 40
0
 40
0
 40
0
 40
0
 40
1
 40
1
 40
1
 40
1
 10
35.126078
 20
13.352951
 30
0.0
 10
35.126077
 20
13.992459
 30
0.0
 10
35.380238
 20
14.605774
 30
0.0
 10
35.832648
 20
15.057974
 30
0.0
  0
SPLINE
  5
105
100
AcDbEntity
  8
Layer_1
 62
7
100
AcDbSpline
 70
8
 71
3
 72
8
 73
4
 74
0
 40
0
 40
0
 40
0
 40
0
 40
1
 40
1
 40
1
 40
1
 10
35.832648
 20
15.057974
 30
0.0
 10
36.285058
 20
15.510175
 30
0.0
 10
36.898658
 20
15.764218
 30
0.0
 10
37.538462
 20
15.764218
 30
0.0
  0
SPLINE
  5
106
100
AcDbEntity
  8
Layer_1
 62
7
100
AcDbSpline
 70
8
 71
3
 72
8
 73
4
 74
0
 40
0
 40
0
 40
0
 40
0
 40
1
 40
1
 40
1
 40
1
 10
37.538462
 20
15.764218
 30
0.0
 10
38.178266
 20
15.764217
 30
0.0
 10
38.791866
 20
15.510174
 30
0.0
 10
39.244275
 20
15.057973
 30
0.0
  0
SPLINE
  5
107
100
AcDbEntity
  8
Layer_1
 62
7
100
AcDbSpline
 70
8
 71
3
 72
8
 73
4
 74
0
 40
0
 40
0
 40
0
 40
0
 40
1
 40
1
 40
1
 40
1
 10
39.244275
 20
15.057973
 30
0.0
 10
39.696684
 20
14.605773
 30
0.0
 10
39.950845
 20
13.992458
 30
0.0
 10
39.950844
 20
13.352951
 30
0.0
  0
SPLINE
  5
108
100
AcDbEntity
  8
Layer_1
 62
7
100
AcDbSpline
 70
8
 71
3
 72
8
 73
4
 74
0
 40
0
 40
0
 40
0
 40
0
 40
1
 40
1
 40
1
 40
1
 10
60.439071
 20
13.400674
 30
0.0
 10
60.439072
 20
12.761164
 30
0.0
 10
60.184912
 20
12.147846
 30
0.0
 10
59.732502
 20
11.695643
 30
0.0
  0
SPLINE
  5
109
100
AcDbEntity
  8
Layer_1
 62
7
100
AcDbSpline
 70
8
 71
3
 72
8
 73
4
 74
0
 40
0
 40
0
 40
0
 40
0
 40
1
 40
1
 40
1
 40
1
 10
59.732502
 20
11.695643
 30
0.0
 10
59.280093
 20
11.243441
 30
0.0
 10
58.666494
 20
10.989396
 30
0.0
 10
58.026689
 20
10.989396
 30
0.0
  0
SPLINE
  5
10a
100
AcDbEntity
  8
Layer_1
 62
7
100
AcDbSpline
 70
8
 71
3
 72
8
 73
4
 74
0
 40
0
 40
0
 40
0
 40
0
 40
1
 40
1
 40
1
 40
1
 10
58.026689
 20
10.989396
 30
0.0
 10
57.386885
 20
10.989396
 30
0.0
 10
56.773286
 20
11.243441
 30
0.0
 10
56.320877
 20
11.695643
 30
0.0
  0
SPLINE
  5
10b
100
AcDbEntity
  8
Layer_1
 62
7
100
AcDbSpline
 70
8
 71
3
 72
8
 73
4
 74
0
 40
0
 40
0
 40
0
 40
0
 40
1
 40
1
 40
1
 40
1
 10
56.320877
 20
11.695643
 30
0.0
 10
55.868467
 20
12.147846
 30
0.0
 10
55.614307
 20
12.761164
 30
0.0
 10
55.614308
 20
13.400674
 30
0.0
  0
SPLINE
  5
10c
100
AcDbEntity
  8
Layer_1
 62
7
100
AcDbSpline
 70
8
 71
3
 72
8
 73
4
 74
0
 40
0
 40
0
 40
0
 40
0
 40
1
 40
1
 40
1
 40
1
 10
55.614308
 20
13.400674
 30
0.0
 10
55.614312
 20
14.732382
 30
0.0
 10
56.694371
 20
15.811941
 30
0.0
 10
58.026689
 20
15.811942
 30
0.0
  0
SPLINE
  5
10d
100
AcDbEntity
  8
Layer_1
 62
7
100
AcDbSpline
 70
8
 71
3
 72
8
 73
4
 74
0
 40
0
 40
0
 40
0
 40
0
 40
1
 40
1
 40
1
 40
1
 10
58.026689
 20
15.811942
 30
0.0
 10
59.359008
 20
15.811941
 30
0.0
 10
60.439067
 20
14.732382
 30
0.0
 10
60.439071
 20
13.400674
 30
0.0
  0
LWPOLYLINE
  5
10e
100
AcDbEntity
  8
Layer_1
 62
7
100
AcDbPolyline
 90
2
 70
1
 10
39.950844
 20
13.352951
 30
0.0
 10
39.950844
 20
13.352951
 30
0.0
  0
SPLINE
  5
10f
100
AcDbEntity
  8
Layer_1
 62
7
100
AcDbSpline
 70
8
 71
3
 72
8
 73
4
 74
0
 40
0
 40
0
 40
0
 40
0
 40
1
 40
1
 40
1
 40
1
 10
39.832641
 20
40.574071
 30
0.0
 10
39.832631
 20
39.242371
 30
0.0
 10
38.752574
 20
38.162819
 30
0.0
 10
37.420259
 20
38.162818
 30
0.0
  0
SPLINE
  5
110
100
AcDbEntity
  8
Layer_1
 62
7
100
AcDbSpline
 70
8
 71
3
 72
8
 73
4
 74
0
 40
0
 40
0
 40
0
 40
0
 40
1
 40
1
 40
1
 40
1
 10
37.420259
 20
38.162818
 30
0.0
 10
36.087944
 20
38.162819
 30
0.0
 10
35.007887
 20
39.242371
 30
0.0
 10
35.007877
 20
40.574071
 30
0.0
  0
SPLINE
  5
111
100
AcDbEntity
  8
Layer_1
 62
7
100
AcDbSpline
 70
8
 71
3
 72
8
 73
4
 74
0
 40
0
 40
0
 40
0
 40
0
 40
1
 40
1
 40
1
 40
1
 10
35.007877
 20
40.574071
 30
0.0
 10
35.007874
 20
41.213582
 30
0.0
 10
35.262033
 20
41.826902
 30
0.0
 10
35.714443
 20
42.279106
 30
0.0
  0
SPLINE
  5
112
100
AcDbEntity
  8
Layer_1
 62
7
100
AcDbSpline
 70
8
 71
3
 72
8
 73
4
 74
0
 40
0
 40
0
 40
0
 40
0
 40
1
 40
1
 40
1
 40
1
 10
35.714443
 20
42.279106
 30
0.0
 10
36.166853
 20
42.731309
 30
0.0
 10
36.780453
 20
42.985355
 30
0.0
 10
37.420259
 20
42.985355
 30
0.0
  0
SPLINE
  5
113
100
AcDbEntity
  8
Layer_1
 62
7
100
AcDbSpline
 70
8
 71
3
 72
8
 73
4
 74
0
 40
0
 40
0
 40
0
 40
0
 40
1
 40
1
 40
1
 40
1
 10
37.420259
 20
42.985355
 30
0.0
 10
38.060065
 20
42.985355
 30
0.0
 10
38.673666
 20
42.731309
 30
0.0
 10
39.126076
 20
42.279106
 30
0.0
  0
SPLINE
  5
114
100
AcDbEntity
  8
Layer_1
 62
7
100
AcDbSpline
 70
8
 71
3
 72
8
 73
4
 74
0
 40
0
 40
0
 40
0
 40
0
 40
1
 40
1
 40
1
 40
1
 10
39.126076
 20
42.279106
 30
0.0
 10
39.578485
 20
41.826902
 30
0.0
 10
39.832645
 20
41.213582
 30
0.0
 10
39.832641
 20
40.574071
 30
0.0
  0
LWPOLYLINE
  5
115
100
AcDbEntity
  8
Layer_1
 62
7
100
AcDbPolyline
 90
2
 70
1
 10
60.439071
 20
13.400674
 30
0.0
 10
60.439071
 20
13.400674
 30
0.0
  0
SPLINE
  5
116
100
AcDbEntity
  8
Layer_1
 62
7
100
AcDbSpline
 70
8
 71
3
 72
8
 73
4
 74
0
 40
0
 40
0
 40
0
 40
0
 40
1
 40
1
 40
1
 40
1
 10
39.965373
 20
26.904345
 30
0.0
 10
39.965360
 20
25.572652
 30
0.0
 10
38.885304
 20
24.493109
 30
0.0
 10
37.552991
 20
24.493108
 30
0.0
  0
SPLINE
  5
117
100
AcDbEntity
  8
Layer_1
 62
7
100
AcDbSpline
 70
8
 71
3
 72
8
 73
4
 74
0
 40
0
 40
0
 40
0
 40
0
 40
1
 40
1
 40
1
 40
1
 10
37.552991
 20
24.493108
 30
0.0
 10
36.220678
 20
24.493109
 30
0.0
 10
35.140622
 20
25.572652
 30
0.0
 10
35.140609
 20
26.904345
 30
0.0
  0
SPLINE
  5
118
100
AcDbEntity
  8
Layer_1
 62
7
100
AcDbSpline
 70
8
 71
3
 72
8
 73
4
 74
0
 40
0
 40
0
 40
0
 40
0
 40
1
 40
1
 40
1
 40
1
 10
35.140609
 20
26.904345
 30
0.0
 10
35.140599
 20
27.543857
 30
0.0
 10
35.394755
 20
28.157180
 30
0.0
 10
35.847166
 20
28.609387
 30
0.0
  0
SPLINE
  5
119
100
AcDbEntity
  8
Layer_1
 62
7
100
AcDbSpline
 70
8
 71
3
 72
8
 73
4
 74
0
 40
0
 40
0
 40
0
 40
0
 40
1
 40
1
 40
1
 40
1
 10
35.847166
 20
28.609387
 30
0.0
 10
36.299576
 20
29.061594
 30
0.0
 10
36.913181
 20
29.315642
 30
0.0
 10
37.552991
 20
29.315643
 30
0.0
  0
SPLINE
  5
11a
100
AcDbEntity
  8
Layer_1
 62
7
100
AcDbSpline
 70
8
 71
3
 72
8
 73
4
 74
0
 40
0
 40
0
 40
0
 40
0
 40
1
 40
1
 40
1
 40
1
 10
37.552991
 20
29.315643
 30
0.0
 10
38.192802
 20
29.315642
 30
0.0
 10
38.806406
 20
29.061594
 30
0.0
 10
39.258817
 20
28.609387
 30
0.0
  0
SPLINE
  5
11b
100
AcDbEntity
  8
Layer_1
 62
7
100
AcDbSpline
 70
8
 71
3
 72
8
 73
4
 74
0
 40
0
 40
0
 40
0
 40
0
 40
1
 40
1
 40
1
 40
1
 10
39.258817
 20
28.609387
 30
0.0
 10
39.711227
 20
28.157180
 30
0.0
 10
39.965383
 20
27.543857
 30
0.0
 10
39.965373
 20
26.904345
 30
0.0
  0
LWPOLYLINE
  5
11c
100
AcDbEntity
  8
Layer_1
 62
7
100
AcDbPolyline
 90
2
 70
1
 10
39.832641
 20
40.574071
 30
0.0
 10
39.832641
 20
40.574071
 30
0.0
  0
SPLINE
  5
11d
100
AcDbEntity
  8
Layer_1
 62
7
100
AcDbSpline
 70
8
 71
3
 72
8
 73
4
 74
0
 40
0
 40
0
 40
0
 40
0
 40
1
 40
1
 40
1
 40
1
 10
60.273159
 20
27.037091
 30
0.0
 10
60.273149
 20
25.705390
 30
0.0
 10
59.193092
 20
24.625838
 30
0.0
 10
57.860777
 20
24.625838
 30
0.0
  0
SPLINE
  5
11e
100
AcDbEntity
  8
Layer_1
 62
7
100
AcDbSpline
 70
8
 71
3
 72
8
 73
4
 74
0
 40
0
 40
0
 40
0
 40
0
 40
1
 40
1
 40
1
 40
1
 10
57.860777
 20
24.625838
 30
0.0
 10
56.528461
 20
24.625838
 30
0.0
 10
55.448404
 20
25.705390
 30
0.0
 10
55.448395
 20
27.037091
 30
0.0
  0
SPLINE
  5
11f
100
AcDbEntity
  8
Layer_1
 62
7
100
AcDbSpline
 70
8
 71
3
 72
8
 73
4
 74
0
 40
0
 40
0
 40
0
 40
0
 40
1
 40
1
 40
1
 40
1
 10
55.448395
 20
27.037091
 30
0.0
 10
55.448392
 20
27.676601
 30
0.0
 10
55.702551
 20
28.289920
 30
0.0
 10
56.154961
 20
28.742123
 30
0.0
  0
SPLINE
  5
120
100
AcDbEntity
  8
Layer_1
 62
7
100
AcDbSpline
 70
8
 71
3
 72
8
 73
4
 74
0
 40
0
 40
0
 40
0
 40
0
 40
1
 40
1
 40
1
 40
1
 10
56.154961
 20
28.742123
 30
0.0
 10
56.607371
 20
29.194326
 30
0.0
 10
57.220971
 20
29.448372
 30
0.0
 10
57.860777
 20
29.448372
 30
0.0
  0
SPLINE
  5
121
100
AcDbEntity
  8
Layer_1
 62
7
100
AcDbSpline
 70
8
 71
3
 72
8
 73
4
 74
0
 40
0
 40
0
 40
0
 40
0
 40
1
 40
1
 40
1
 40
1
 10
57.860777
 20
29.448372
 30
0.0
 10
58.500582
 20
29.448372
 30
0.0
 10
59.114183
 20
29.194326
 30
0.0
 10
59.566592
 20
28.742123
 30
0.0
  0
SPLINE
  5
122
100
AcDbEntity
  8
Layer_1
 62
7
100
AcDbSpline
 70
8
 71
3
 72
8
 73
4
 74
0
 40
0
 40
0
 40
0
 40
0
 40
1
 40
1
 40
1
 40
1
 10
59.566592
 20
28.742123
 30
0.0
 10
60.019002
 20
28.289920
 30
0.0
 10
60.273162
 20
27.676601
 30
0.0
 10
60.273159
 20
27.037091
 30
0.0
  0
LWPOLYLINE
  5
123
100
AcDbEntity
  8
Layer_1
 62
7
100
AcDbPolyline
 90
2
 70
1
 10
39.965373
 20
26.904345
 30
0.0
 10
39.965373
 20
26.904345
 30
0.0
  0
SPLINE
  5
124
100
AcDbEntity
  8
Layer_1
 62
7
100
AcDbSpline
 70
8
 71
3
 72
8
 73
4
 74
0
 40
0
 40
0
 40
0
 40
0
 40
1
 40
1
 40
1
 40
1
 10
60.273159
 20
40.706772
 30
0.0
 10
60.273149
 20
39.375071
 30
0.0
 10
59.193090
 20
38.295518
 30
0.0
 10
57.860774
 20
38.295519
 30
0.0
  0
SPLINE
  5
125
100
AcDbEntity
  8
Layer_1
 62
7
100
AcDbSpline
 70
8
 71
3
 72
8
 73
4
 74
0
 40
0
 40
0
 40
0
 40
0
 40
1
 40
1
 40
1
 40
1
 10
57.860774
 20
38.295519
 30
0.0
 10
56.528460
 20
38.295522
 30
0.0
 10
55.448404
 20
39.375073
 30
0.0
 10
55.448395
 20
40.706772
 30
0.0
  0
SPLINE
  5
126
100
AcDbEntity
  8
Layer_1
 62
7
100
AcDbSpline
 70
8
 71
3
 72
8
 73
4
 74
0
 40
0
 40
0
 40
0
 40
0
 40
1
 40
1
 40
1
 40
1
 10
55.448395
 20
40.706772
 30
0.0
 10
55.448391
 20
41.346283
 30
0.0
 10
55.702550
 20
41.959602
 30
0.0
 10
56.154959
 20
42.411805
 30
0.0
  0
SPLINE
  5
127
100
AcDbEntity
  8
Layer_1
 62
7
100
AcDbSpline
 70
8
 71
3
 72
8
 73
4
 74
0
 40
0
 40
0
 40
0
 40
0
 40
1
 40
1
 40
1
 40
1
 10
56.154959
 20
42.411805
 30
0.0
 10
56.607368
 20
42.864009
 30
0.0
 10
57.220968
 20
43.118055
 30
0.0
 10
57.860774
 20
43.118056
 30
0.0
  0
SPLINE
  5
128
100
AcDbEntity
  8
Layer_1
 62
7
100
AcDbSpline
 70
8
 71
3
 72
8
 73
4
 74
0
 40
0
 40
0
 40
0
 40
0
 40
1
 40
1
 40
1
 40
1
 10
57.860774
 20
43.118056
 30
0.0
 10
58.500580
 20
43.118057
 30
0.0
 10
59.114182
 20
42.864011
 30
0.0
 10
59.566592
 20
42.411807
 30
0.0
  0
SPLINE
  5
129
100
AcDbEntity
  8
Layer_1
 62
7
100
AcDbSpline
 70
8
 71
3
 72
8
 73
4
 74
0
 40
0
 40
0
 40
0
 40
0
 40
1
 40
1
 40
1
 40
1
 10
59.566592
 20
42.411807
 30
0.0
 10
60.019002
 20
41.959603
 30
0.0
 10
60.273162
 20
41.346284
 30
0.0
 10
60.273159
 20
40.706772
 30
0.0
  0
LWPOLYLINE
  5
12a
100
AcDbEntity
  8
Layer_1
 62
7
100
AcDbPolyline
 90
2
 70
1
 10
60.273159
 20
27.037091
 30
0.0
 10
60.273159
 20
27.037091
 30
0.0
  0
SPLINE
  5
12b
100
AcDbEntity
  8
Layer_1
 62
7
100
AcDbSpline
 70
8
 71
3
 72
8
 73
4
 74
0
 40
0
 40
0
 40
0
 40
0
 40
1
 40
1
 40
1
 40
1
 10
15.941133
 20
54.243722
 30
0.0
 10
15.941123
 20
52.912021
 30
0.0
 10
14.861065
 20
51.832469
 30
0.0
 10
13.528750
 20
51.832469
 30
0.0
  0
SPLINE
  5
12c
100
AcDbEntity
  8
Layer_1
 62
7
100
AcDbSpline
 70
8
 71
3
 72
8
 73
4
 74
0
 40
0
 40
0
 40
0
 40
0
 40
1
 40
1
 40
1
 40
1
 10
13.528750
 20
51.832469
 30
0.0
 10
12.196434
 20
51.832469
 30
0.0
 10
11.116376
 20
52.912021
 30
0.0
 10
11.116366
 20
54.243722
 30
0.0
  0
SPLINE
  5
12d
100
AcDbEntity
  8
Layer_1
 62
7
100
AcDbSpline
 70
8
 71
3
 72
8
 73
4
 74
0
 40
0
 40
0
 40
0
 40
0
 40
1
 40
1
 40
1
 40
1
 10
11.116366
 20
54.243722
 30
0.0
 10
11.116363
 20
54.883233
 30
0.0
 10
11.370522
 20
55.496553
 30
0.0
 10
11.822932
 20
55.948757
 30
0.0
  0
SPLINE
  5
12e
100
AcDbEntity
  8
Layer_1
 62
7
100
AcDbSpline
 70
8
 71
3
 72
8
 73
4
 74
0
 40
0
 40
0
 40
0
 40
0
 40
1
 40
1
 40
1
 40
1
 10
11.822932
 20
55.948757
 30
0.0
 10
12.275342
 20
56.400960
 30
0.0
 10
12.888943
 20
56.655006
 30
0.0
 10
13.528750
 20
56.655006
 30
0.0
  0
SPLINE
  5
12f
100
AcDbEntity
  8
Layer_1
 62
7
100
AcDbSpline
 70
8
 71
3
 72
8
 73
4
 74
0
 40
0
 40
0
 40
0
 40
0
 40
1
 40
1
 40
1
 40
1
 10
13.528750
 20
56.655006
 30
0.0
 10
14.168556
 20
56.655006
 30
0.0
 10
14.782157
 20
56.400960
 30
0.0
 10
15.234567
 20
55.948757
 30
0.0
  0
SPLINE
  5
130
100
AcDbEntity
  8
Layer_1
 62
7
100
AcDbSpline
 70
8
 71
3
 72
8
 73
4
 74
0
 40
0
 40
0
 40
0
 40
0
 40
1
 40
1
 40
1
 40
1
 10
15.234567
 20
55.948757
 30
0.0
 10
15.686977
 20
55.496553
 30
0.0
 10
15.941136
 20
54.883233
 30
0.0
 10
15.941133
 20
54.243722
 30
0.0
  0
LWPOLYLINE
  5
131
100
AcDbEntity
  8
Layer_1
 62
7
100
AcDbPolyline
 90
2
 70
1
 10
60.273159
 20
40.706772
 30
0.0
 10
60.273159
 20
40.706772
 30
0.0
  0
SPLINE
  5
132
100
AcDbEntity
  8
Layer_1
 62
7
100
AcDbSpline
 70
8
 71
3
 72
8
 73
4
 74
0
 40
0
 40
0
 40
0
 40
0
 40
1
 40
1
 40
1
 40
1
 10
33.196112
 20
54.243722
 30
0.0
 10
33.196103
 20
52.912021
 30
0.0
 10
32.116045
 20
51.832470
 30
0.0
 10
30.783730
 20
51.832469
 30
0.0
  0
SPLINE
  5
133
100
AcDbEntity
  8
Layer_1
 62
7
100
AcDbSpline
 70
8
 71
3
 72
8
 73
4
 74
0
 40
0
 40
0
 40
0
 40
0
 40
1
 40
1
 40
1
 40
1
 10
30.783730
 20
51.832469
 30
0.0
 10
29.451415
 20
51.832470
 30
0.0
 10
28.371358
 20
52.912021
 30
0.0
 10
28.371348
 20
54.243722
 30
0.0
  0
SPLINE
  5
134
100
AcDbEntity
  8
Layer_1
 62
7
100
AcDbSpline
 70
8
 71
3
 72
8
 73
4
 74
0
 40
0
 40
0
 40
0
 40
0
 40
1
 40
1
 40
1
 40
1
 10
28.371348
 20
54.243722
 30
0.0
 10
28.371345
 20
54.883233
 30
0.0
 10
28.625504
 20
55.496552
 30
0.0
 10
29.077914
 20
55.948756
 30
0.0
  0
SPLINE
  5
135
100
AcDbEntity
  8
Layer_1
 62
7
100
AcDbSpline
 70
8
 71
3
 72
8
 73
4
 74
0
 40
0
 40
0
 40
0
 40
0
 40
1
 40
1
 40
1
 40
1
 10
29.077914
 20
55.948756
 30
0.0
 10
29.530324
 20
56.400960
 30
0.0
 10
30.143924
 20
56.655006
 30
0.0
 10
30.783730
 20
56.655006
 30
0.0
  0
SPLINE
  5
136
100
AcDbEntity
  8
Layer_1
 62
7
100
AcDbSpline
 70
8
 71
3
 72
8
 73
4
 74
0
 40
0
 40
0
 40
0
 40
0
 40
1
 40
1
 40
1
 40
1
 10
30.783730
 20
56.655006
 30
0.0
 10
31.423536
 20
56.655006
 30
0.0
 10
32.037137
 20
56.400960
 30
0.0
 10
32.489547
 20
55.948756
 30
0.0
  0
SPLINE
  5
137
100
AcDbEntity
  8
Layer_1
 62
7
100
AcDbSpline
 70
8
 71
3
 72
8
 73
4
 74
0
 40
0
 40
0
 40
0
 40
0
 40
1
 40
1
 40
1
 40
1
 10
32.489547
 20
55.948756
 30
0.0
 10
32.941957
 20
55.496552
 30
0.0
 10
33.196116
 20
54.883233
 30
0.0
 10
33.196112
 20
54.243722
 30
0.0
  0
LWPOLYLINE
  5
138
100
AcDbEntity
  8
Layer_1
 62
7
100
AcDbPolyline
 90
2
 70
1
 10
15.941133
 20
54.243722
 30
0.0
 10
15.941133
 20
54.243722
 30
0.0
  0
SPLINE
  5
139
100
AcDbEntity
  8
Layer_1
 62
7
100
AcDbSpline
 70
8
 71
3
 72
8
 73
4
 74
0
 40
0
 40
0
 40
0
 40
0
 40
1
 40
1
 40
1
 40
1
 10
50.185630
 20
54.243722
 30
0.0
 10
50.185621
 20
52.912021
 30
0.0
 10
49.105564
 20
51.832470
 30
0.0
 10
47.773249
 20
51.832469
 30
0.0
  0
SPLINE
  5
13a
100
AcDbEntity
  8
Layer_1
 62
7
100
AcDbSpline
 70
8
 71
3
 72
8
 73
4
 74
0
 40
0
 40
0
 40
0
 40
0
 40
1
 40
1
 40
1
 40
1
 10
47.773249
 20
51.832469
 30
0.0
 10
46.440933
 20
51.832470
 30
0.0
 10
45.360876
 20
52.912021
 30
0.0
 10
45.360867
 20
54.243722
 30
0.0
  0
SPLINE
  5
13b
100
AcDbEntity
  8
Layer_1
 62
7
100
AcDbSpline
 70
8
 71
3
 72
8
 73
4
 74
0
 40
0
 40
0
 40
0
 40
0
 40
1
 40
1
 40
1
 40
1
 10
45.360867
 20
54.243722
 30
0.0
 10
45.360863
 20
54.883233
 30
0.0
 10
45.615022
 20
55.496552
 30
0.0
 10
46.067432
 20
55.948756
 30
0.0
  0
SPLINE
  5
13c
100
AcDbEntity
  8
Layer_1
 62
7
100
AcDbSpline
 70
8
 71
3
 72
8
 73
4
 74
0
 40
0
 40
0
 40
0
 40
0
 40
1
 40
1
 40
1
 40
1
 10
46.067432
 20
55.948756
 30
0.0
 10
46.519842
 20
56.400960
 30
0.0
 10
47.133443
 20
56.655006
 30
0.0
 10
47.773249
 20
56.655006
 30
0.0
  0
SPLINE
  5
13d
100
AcDbEntity
  8
Layer_1
 62
7
100
AcDbSpline
 70
8
 71
3
 72
8
 73
4
 74
0
 40
0
 40
0
 40
0
 40
0
 40
1
 40
1
 40
1
 40
1
 10
47.773249
 20
56.655006
 30
0.0
 10
48.413054
 20
56.655006
 30
0.0
 10
49.026655
 20
56.400960
 30
0.0
 10
49.479065
 20
55.948756
 30
0.0
  0
SPLINE
  5
13e
100
AcDbEntity
  8
Layer_1
 62
7
100
AcDbSpline
 70
8
 71
3
 72
8
 73
4
 74
0
 40
0
 40
0
 40
0
 40
0
 40
1
 40
1
 40
1
 40
1
 10
49.479065
 20
55.948756
 30
0.0
 10
49.931475
 20
55.496552
 30
0.0
 10
50.185634
 20
54.883233
 30
0.0
 10
50.185630
 20
54.243722
 30
0.0
  0
LWPOLYLINE
  5
13f
100
AcDbEntity
  8
Layer_1
 62
7
100
AcDbPolyline
 90
2
 70
1
 10
33.196112
 20
54.243722
 30
0.0
 10
33.196112
 20
54.243722
 30
0.0
  0
SPLINE
  5
140
100
AcDbEntity
  8
Layer_1
 62
7
100
AcDbSpline
 70
8
 71
3
 72
8
 73
4
 74
0
 40
0
 40
0
 40
0
 40
0
 40
1
 40
1
 40
1
 40
1
 10
84.164672
 20
54.243725
 30
0.0
 10
84.164663
 20
52.912024
 30
0.0
 10
83.084604
 20
51.832472
 30
0.0
 10
81.752288
 20
51.832472
 30
0.0
  0
SPLINE
  5
141
100
AcDbEntity
  8
Layer_1
 62
7
100
AcDbSpline
 70
8
 71
3
 72
8
 73
4
 74
0
 40
0
 40
0
 40
0
 40
0
 40
1
 40
1
 40
1
 40
1
 10
81.752288
 20
51.832472
 30
0.0
 10
80.419972
 20
51.832473
 30
0.0
 10
79.339915
 20
52.912025
 30
0.0
 10
79.339906
 20
54.243725
 30
0.0
  0
SPLINE
  5
142
100
AcDbEntity
  8
Layer_1
 62
7
100
AcDbSpline
 70
8
 71
3
 72
8
 73
4
 74
0
 40
0
 40
0
 40
0
 40
0
 40
1
 40
1
 40
1
 40
1
 10
79.339906
 20
54.243725
 30
0.0
 10
79.339902
 20
54.883236
 30
0.0
 10
79.594061
 20
55.496555
 30
0.0
 10
80.046471
 20
55.948759
 30
0.0
  0
SPLINE
  5
143
100
AcDbEntity
  8
Layer_1
 62
7
100
AcDbSpline
 70
8
 71
3
 72
8
 73
4
 74
0
 40
0
 40
0
 40
0
 40
0
 40
1
 40
1
 40
1
 40
1
 10
80.046471
 20
55.948759
 30
0.0
 10
80.498881
 20
56.400962
 30
0.0
 10
81.112482
 20
56.655008
 30
0.0
 10
81.752288
 20
56.655009
 30
0.0
  0
SPLINE
  5
144
100
AcDbEntity
  8
Layer_1
 62
7
100
AcDbSpline
 70
8
 71
3
 72
8
 73
4
 74
0
 40
0
 40
0
 40
0
 40
0
 40
1
 40
1
 40
1
 40
1
 10
81.752288
 20
56.655009
 30
0.0
 10
82.392094
 20
56.655009
 30
0.0
 10
83.005696
 20
56.400963
 30
0.0
 10
83.458106
 20
55.948760
 30
0.0
  0
SPLINE
  5
145
100
AcDbEntity
  8
Layer_1
 62
7
100
AcDbSpline
 70
8
 71
3
 72
8
 73
4
 74
0
 40
0
 40
0
 40
0
 40
0
 40
1
 40
1
 40
1
 40
1
 10
83.458106
 20
55.948760
 30
0.0
 10
83.910516
 20
55.496556
 30
0.0
 10
84.164676
 20
54.883236
 30
0.0
 10
84.164672
 20
54.243725
 30
0.0
  0
LWPOLYLINE
  5
146
100
AcDbEntity
  8
Layer_1
 62
7
100
AcDbPolyline
 90
2
 70
1
 10
50.185630
 20
54.243722
 30
0.0
 10
50.185630
 20
54.243722
 30
0.0
  0
SPLINE
  5
147
100
AcDbEntity
  8
Layer_1
 62
7
100
AcDbSpline
 70
8
 71
3
 72
8
 73
4
 74
0
 40
0
 40
0
 40
0
 40
0
 40
1
 40
1
 40
1
 40
1
 10
67.175146
 20
54.243722
 30
0.0
 10
67.175136
 20
52.912021
 30
0.0
 10
66.095078
 20
51.832469
 30
0.0
 10
64.762764
 20
51.832469
 30
0.0
  0
SPLINE
  5
148
100
AcDbEntity
  8
Layer_1
 62
7
100
AcDbSpline
 70
8
 71
3
 72
8
 73
4
 74
0
 40
0
 40
0
 40
0
 40
0
 40
1
 40
1
 40
1
 40
1
 10
64.762764
 20
51.832469
 30
0.0
 10
63.430449
 20
51.832469
 30
0.0
 10
62.350392
 20
52.912021
 30
0.0
 10
62.350382
 20
54.243722
 30
0.0
  0
SPLINE
  5
149
100
AcDbEntity
  8
Layer_1
 62
7
100
AcDbSpline
 70
8
 71
3
 72
8
 73
4
 74
0
 40
0
 40
0
 40
0
 40
0
 40
1
 40
1
 40
1
 40
1
 10
62.350382
 20
54.243722
 30
0.0
 10
62.350378
 20
54.883233
 30
0.0
 10
62.604538
 20
55.496553
 30
0.0
 10
63.056948
 20
55.948757
 30
0.0
  0
SPLINE
  5
14a
100
AcDbEntity
  8
Layer_1
 62
7
100
AcDbSpline
 70
8
 71
3
 72
8
 73
4
 74
0
 40
0
 40
0
 40
0
 40
0
 40
1
 40
1
 40
1
 40
1
 10
63.056948
 20
55.948757
 30
0.0
 10
63.509357
 20
56.400961
 30
0.0
 10
64.122958
 20
56.655006
 30
0.0
 10
64.762764
 20
56.655006
 30
0.0
  0
SPLINE
  5
14b
100
AcDbEntity
  8
Layer_1
 62
7
100
AcDbSpline
 70
8
 71
3
 72
8
 73
4
 74
0
 40
0
 40
0
 40
0
 40
0
 40
1
 40
1
 40
1
 40
1
 10
64.762764
 20
56.655006
 30
0.0
 10
65.402569
 20
56.655006
 30
0.0
 10
66.016170
 20
56.400961
 30
0.0
 10
66.468580
 20
55.948757
 30
0.0
  0
SPLINE
  5
14c
100
AcDbEntity
  8
Layer_1
 62
7
100
AcDbSpline
 70
8
 71
3
 72
8
 73
4
 74
0
 40
0
 40
0
 40
0
 40
0
 40
1
 40
1
 40
1
 40
1
 10
66.468580
 20
55.948757
 30
0.0
 10
66.920990
 20
55.496553
 30
0.0
 10
67.175149
 20
54.883233
 30
0.0
 10
67.175146
 20
54.243722
 30
0.0
  0
LWPOLYLINE
  5
14d
100
AcDbEntity
  8
Layer_1
 62
7
100
AcDbPolyline
 90
2
 70
1
 10
84.164672
 20
54.243725
 30
0.0
 10
84.164672
 20
54.243725
 30
0.0
  0
SPLINE
  5
14e
100
AcDbEntity
  8
Layer_1
 62
7
100
AcDbSpline
 70
8
 71
3
 72
8
 73
4
 74
0
 40
0
 40
0
 40
0
 40
0
 40
1
 40
1
 40
1
 40
1
 10
33.461573
 20
67.913384
 30
0.0
 10
33.461564
 20
66.581683
 30
0.0
 10
32.381506
 20
65.502132
 30
0.0
 10
31.049191
 20
65.502131
 30
0.0
  0
SPLINE
  5
14f
100
AcDbEntity
  8
Layer_1
 62
7
100
AcDbSpline
 70
8
 71
3
 72
8
 73
4
 74
0
 40
0
 40
0
 40
0
 40
0
 40
1
 40
1
 40
1
 40
1
 10
31.049191
 20
65.502131
 30
0.0
 10
29.716876
 20
65.502132
 30
0.0
 10
28.636819
 20
66.581683
 30
0.0
 10
28.636809
 20
67.913384
 30
0.0
  0
SPLINE
  5
150
100
AcDbEntity
  8
Layer_1
 62
7
100
AcDbSpline
 70
8
 71
3
 72
8
 73
4
 74
0
 40
0
 40
0
 40
0
 40
0
 40
1
 40
1
 40
1
 40
1
 10
28.636809
 20
67.913384
 30
0.0
 10
28.636806
 20
68.552895
 30
0.0
 10
28.890965
 20
69.166214
 30
0.0
 10
29.343375
 20
69.618418
 30
0.0
  0
SPLINE
  5
151
100
AcDbEntity
  8
Layer_1
 62
7
100
AcDbSpline
 70
8
 71
3
 72
8
 73
4
 74
0
 40
0
 40
0
 40
0
 40
0
 40
1
 40
1
 40
1
 40
1
 10
29.343375
 20
69.618418
 30
0.0
 10
29.795785
 20
70.070622
 30
0.0
 10
30.409386
 20
70.324668
 30
0.0
 10
31.049191
 20
70.324668
 30
0.0
  0
SPLINE
  5
152
100
AcDbEntity
  8
Layer_1
 62
7
100
AcDbSpline
 70
8
 71
3
 72
8
 73
4
 74
0
 40
0
 40
0
 40
0
 40
0
 40
1
 40
1
 40
1
 40
1
 10
31.049191
 20
70.324668
 30
0.0
 10
31.688997
 20
70.324668
 30
0.0
 10
32.302598
 20
70.070622
 30
0.0
 10
32.755008
 20
69.618418
 30
0.0
  0
SPLINE
  5
153
100
AcDbEntity
  8
Layer_1
 62
7
100
AcDbSpline
 70
8
 71
3
 72
8
 73
4
 74
0
 40
0
 40
0
 40
0
 40
0
 40
1
 40
1
 40
1
 40
1
 10
32.755008
 20
69.618418
 30
0.0
 10
33.207418
 20
69.166214
 30
0.0
 10
33.461577
 20
68.552895
 30
0.0
 10
33.461573
 20
67.913384
 30
0.0
  0
LWPOLYLINE
  5
154
100
AcDbEntity
  8
Layer_1
 62
7
100
AcDbPolyline
 90
2
 70
1
 10
67.175146
 20
54.243722
 30
0.0
 10
67.175146
 20
54.243722
 30
0.0
  0
SPLINE
  5
155
100
AcDbEntity
  8
Layer_1
 62
7
100
AcDbSpline
 70
8
 71
3
 72
8
 73
4
 74
0
 40
0
 40
0
 40
0
 40
0
 40
1
 40
1
 40
1
 40
1
 10
50.052901
 20
67.913384
 30
0.0
 10
50.052892
 20
66.581682
 30
0.0
 10
48.972833
 20
65.502130
 30
0.0
 10
47.640517
 20
65.502131
 30
0.0
  0
SPLINE
  5
156
100
AcDbEntity
  8
Layer_1
 62
7
100
AcDbSpline
 70
8
 71
3
 72
8
 73
4
 74
0
 40
0
 40
0
 40
0
 40
0
 40
1
 40
1
 40
1
 40
1
 10
47.640517
 20
65.502131
 30
0.0
 10
46.308202
 20
65.502132
 30
0.0
 10
45.228144
 20
66.581683
 30
0.0
 10
45.228135
 20
67.913384
 30
0.0
  0
SPLINE
  5
157
100
AcDbEntity
  8
Layer_1
 62
7
100
AcDbSpline
 70
8
 71
3
 72
8
 73
4
 74
0
 40
0
 40
0
 40
0
 40
0
 40
1
 40
1
 40
1
 40
1
 10
45.228135
 20
67.913384
 30
0.0
 10
45.228131
 20
68.552895
 30
0.0
 10
45.482290
 20
69.166214
 30
0.0
 10
45.934700
 20
69.618418
 30
0.0
  0
SPLINE
  5
158
100
AcDbEntity
  8
Layer_1
 62
7
100
AcDbSpline
 70
8
 71
3
 72
8
 73
4
 74
0
 40
0
 40
0
 40
0
 40
0
 40
1
 40
1
 40
1
 40
1
 10
45.934700
 20
69.618418
 30
0.0
 10
46.387110
 20
70.070622
 30
0.0
 10
47.000711
 20
70.324668
 30
0.0
 10
47.640517
 20
70.324668
 30
0.0
  0
SPLINE
  5
159
100
AcDbEntity
  8
Layer_1
 62
7
100
AcDbSpline
 70
8
 71
3
 72
8
 73
4
 74
0
 40
0
 40
0
 40
0
 40
0
 40
1
 40
1
 40
1
 40
1
 10
47.640517
 20
70.324668
 30
0.0
 10
48.280323
 20
70.324668
 30
0.0
 10
48.893925
 20
70.070623
 30
0.0
 10
49.346335
 20
69.618419
 30
0.0
  0
SPLINE
  5
15a
100
AcDbEntity
  8
Layer_1
 62
7
100
AcDbSpline
 70
8
 71
3
 72
8
 73
4
 74
0
 40
0
 40
0
 40
0
 40
0
 40
1
 40
1
 40
1
 40
1
 10
49.346335
 20
69.618419
 30
0.0
 10
49.798745
 20
69.166215
 30
0.0
 10
50.052905
 20
68.552895
 30
0.0
 10
50.052901
 20
67.913384
 30
0.0
  0
LWPOLYLINE
  5
15b
100
AcDbEntity
  8
Layer_1
 62
7
100
AcDbPolyline
 90
2
 70
1
 10
33.461573
 20
67.913384
 30
0.0
 10
33.461573
 20
67.913384
 30
0.0
  0
SPLINE
  5
15c
100
AcDbEntity
  8
Layer_1
 62
7
100
AcDbSpline
 70
8
 71
3
 72
8
 73
4
 74
0
 40
0
 40
0
 40
0
 40
0
 40
1
 40
1
 40
1
 40
1
 10
67.042417
 20
67.913392
 30
0.0
 10
67.042408
 20
66.581691
 30
0.0
 10
65.962352
 20
65.502138
 30
0.0
 10
64.630038
 20
65.502137
 30
0.0
  0
SPLINE
  5
15d
100
AcDbEntity
  8
Layer_1
 62
7
100
AcDbSpline
 70
8
 71
3
 72
8
 73
4
 74
0
 40
0
 40
0
 40
0
 40
0
 40
1
 40
1
 40
1
 40
1
 10
64.630038
 20
65.502137
 30
0.0
 10
63.297721
 20
65.502135
 30
0.0
 10
62.217662
 20
66.581689
 30
0.0
 10
62.217653
 20
67.913392
 30
0.0
  0
SPLINE
  5
15e
100
AcDbEntity
  8
Layer_1
 62
7
100
AcDbSpline
 70
8
 71
3
 72
8
 73
4
 74
0
 40
0
 40
0
 40
0
 40
0
 40
1
 40
1
 40
1
 40
1
 10
62.217653
 20
67.913392
 30
0.0
 10
62.217650
 20
68.552904
 30
0.0
 10
62.471810
 20
69.166223
 30
0.0
 10
62.924221
 20
69.618426
 30
0.0
  0
SPLINE
  5
15f
100
AcDbEntity
  8
Layer_1
 62
7
100
AcDbSpline
 70
8
 71
3
 72
8
 73
4
 74
0
 40
0
 40
0
 40
0
 40
0
 40
1
 40
1
 40
1
 40
1
 10
62.924221
 20
69.618426
 30
0.0
 10
63.376631
 20
70.070629
 30
0.0
 10
63.990232
 20
70.324674
 30
0.0
 10
64.630038
 20
70.324674
 30
0.0
  0
SPLINE
  5
160
100
AcDbEntity
  8
Layer_1
 62
7
100
AcDbSpline
 70
8
 71
3
 72
8
 73
4
 74
0
 40
0
 40
0
 40
0
 40
0
 40
1
 40
1
 40
1
 40
1
 10
64.630038
 20
70.324674
 30
0.0
 10
65.269842
 20
70.324673
 30
0.0
 10
65.883442
 20
70.070627
 30
0.0
 10
66.335851
 20
69.618424
 30
0.0
  0
SPLINE
  5
161
100
AcDbEntity
  8
Layer_1
 62
7
100
AcDbSpline
 70
8
 71
3
 72
8
 73
4
 74
0
 40
0
 40
0
 40
0
 40
0
 40
1
 40
1
 40
1
 40
1
 10
66.335851
 20
69.618424
 30
0.0
 10
66.788260
 20
69.166221
 30
0.0
 10
67.042419
 20
68.552903
 30
0.0
 10
67.042417
 20
67.913392
 30
0.0
  0
LWPOLYLINE
  5
162
100
AcDbEntity
  8
Layer_1
 62
7
100
AcDbPolyline
 90
2
 70
1
 10
50.052901
 20
67.913384
 30
0.0
 10
50.052901
 20
67.913384
 30
0.0
  0
SPLINE
  5
163
100
AcDbEntity
  8
Layer_1
 62
7
100
AcDbSpline
 70
8
 71
3
 72
8
 73
4
 74
0
 40
0
 40
0
 40
0
 40
0
 40
1
 40
1
 40
1
 40
1
 10
50.052901
 20
81.583052
 30
0.0
 10
50.052893
 20
80.251349
 30
0.0
 10
48.972834
 20
79.171795
 30
0.0
 10
47.640517
 20
79.171796
 30
0.0
  0
SPLINE
  5
164
100
AcDbEntity
  8
Layer_1
 62
7
100
AcDbSpline
 70
8
 71
3
 72
8
 73
4
 74
0
 40
0
 40
0
 40
0
 40
0
 40
1
 40
1
 40
1
 40
1
 10
47.640517
 20
79.171796
 30
0.0
 10
46.308200
 20
79.171796
 30
0.0
 10
45.228143
 20
80.251350
 30
0.0
 10
45.228135
 20
81.583052
 30
0.0
  0
SPLINE
  5
165
100
AcDbEntity
  8
Layer_1
 62
7
100
AcDbSpline
 70
8
 71
3
 72
8
 73
4
 74
0
 40
0
 40
0
 40
0
 40
0
 40
1
 40
1
 40
1
 40
1
 10
45.228135
 20
81.583052
 30
0.0
 10
45.228132
 20
82.222562
 30
0.0
 10
45.482292
 20
82.835881
 30
0.0
 10
45.934701
 20
83.288084
 30
0.0
  0
SPLINE
  5
166
100
AcDbEntity
  8
Layer_1
 62
7
100
AcDbSpline
 70
8
 71
3
 72
8
 73
4
 74
0
 40
0
 40
0
 40
0
 40
0
 40
1
 40
1
 40
1
 40
1
 10
45.934701
 20
83.288084
 30
0.0
 10
46.387111
 20
83.740287
 30
0.0
 10
47.000711
 20
83.994332
 30
0.0
 10
47.640517
 20
83.994333
 30
0.0
  0
SPLINE
  5
167
100
AcDbEntity
  8
Layer_1
 62
7
100
AcDbSpline
 70
8
 71
3
 72
8
 73
4
 74
0
 40
0
 40
0
 40
0
 40
0
 40
1
 40
1
 40
1
 40
1
 10
47.640517
 20
83.994333
 30
0.0
 10
48.280322
 20
83.994333
 30
0.0
 10
48.893924
 20
83.740288
 30
0.0
 10
49.346334
 20
83.288085
 30
0.0
  0
SPLINE
  5
168
100
AcDbEntity
  8
Layer_1
 62
7
100
AcDbSpline
 70
8
 71
3
 72
8
 73
4
 74
0
 40
0
 40
0
 40
0
 40
0
 40
1
 40
1
 40
1
 40
1
 10
49.346334
 20
83.288085
 30
0.0
 10
49.798744
 20
82.835881
 30
0.0
 10
50.052904
 20
82.222562
 30
0.0
 10
50.052901
 20
81.583052
 30
0.0
  0
LWPOLYLINE
  5
169
100
AcDbEntity
  8
Layer_1
 62
7
100
AcDbPolyline
 90
2
 70
1
 10
67.042417
 20
67.913392
 30
0.0
 10
67.042417
 20
67.913392
 30
0.0
  0
LWPOLYLINE
  5
16a
100
AcDbEntity
  8
Layer_1
 62
7
100
AcDbPolyline
 90
2
 70
1
 10
50.052901
 20
81.583052
 30
0.0
 10
50.052901
 20
81.583052
 30
0.0
  0
LWPOLYLINE
  5
16b
100
AcDbEntity
  8
Layer_1
 62
7
100
AcDbPolyline
 90
3
 70
0
 10
94.957925
 20
6.161844
 30
0.0
 10
94.957925
 20
0.242092
 30
0.0
 10
89.038184
 20
0.242092
 30
0.0
  0
LWPOLYLINE
  5
16c
100
AcDbEntity
  8
Layer_1
 62
7
100
AcDbPolyline
 90
15
 70
0
 10
0.242074
 20
18.001320
 30
0.0
 10
0.242074
 20
23.921061
 30
0.0
 10
0.242074
 20
29.840802
 30
0.0
 10
0.242074
 20
35.760543
 30
0.0
 10
0.242074
 20
41.680287
 30
0.0
 10
2.609970
 20
41.680275
 30
0.0
 10
2.609970
 20
53.519760
 30
0.0
 10
0.242074
 20
53.519768
 30
0.0
 10
0.242074
 20
59.439512
 30
0.0
 10
0.242074
 20
65.359253
 30
0.0
 10
0.242074
 20
71.278994
 30
0.0
 10
0.242074
 20
77.198735
 30
0.0
 10
2.609970
 20
77.198727
 30
0.0
 10
2.609970
 20
89.038214
 30
0.0
 10
0.242074
 20
89.038228
 30
0.0
  0
LWPOLYLINE
  5
16d
100
AcDbEntity
  8
Layer_1
 62
7
100
AcDbPolyline
 90
23
 70
0
 10
0.242074
 20
18.001320
 30
0.0
 10
2.609970
 20
18.001306
 30
0.0
 10
2.609970
 20
6.161816
 30
0.0
 10
0.242074
 20
6.161844
 30
0.0
 10
0.242074
 20
0.242092
 30
0.0
 10
6.161815
 20
0.242092
 30
0.0
 10
6.161814
 20
2.609992
 30
0.0
 10
18.001296
 20
2.609992
 30
0.0
 10
18.001296
 20
0.242092
 30
0.0
 10
23.921037
 20
0.242092
 30
0.0
 10
29.840781
 20
0.242092
 30
0.0
 10
35.760519
 20
0.242092
 30
0.0
 10
41.680260
 20
0.242092
 30
0.0
 10
41.680257
 20
2.609992
 30
0.0
 10
53.519739
 20
2.609992
 30
0.0
 10
53.519739
 20
0.242092
 30
0.0
 10
59.439480
 20
0.242092
 30
0.0
 10
65.359221
 20
0.242092
 30
0.0
 10
71.278964
 20
0.242092
 30
0.0
 10
77.198705
 20
0.242092
 30
0.0
 10
77.198703
 20
2.609992
 30
0.0
 10
89.038182
 20
2.609992
 30
0.0
 10
89.038184
 20
0.242092
 30
0.0
  0
LWPOLYLINE
  5
16e
100
AcDbEntity
  8
Layer_1
 62
7
100
AcDbPolyline
 90
39
 70
0
 10
0.242074
 20
89.038217
 30
0.0
 10
0.242074
 20
94.957958
 30
0.0
 10
6.161815
 20
94.957958
 30
0.0
 10
6.161814
 20
92.590057
 30
0.0
 10
18.001296
 20
92.590057
 30
0.0
 10
18.001296
 20
94.957958
 30
0.0
 10
23.921037
 20
94.957958
 30
0.0
 10
29.840781
 20
94.957958
 30
0.0
 10
35.760519
 20
94.957958
 30
0.0
 10
41.680260
 20
94.957958
 30
0.0
 10
41.680257
 20
92.590057
 30
0.0
 10
53.519739
 20
92.590057
 30
0.0
 10
53.519742
 20
94.957958
 30
0.0
 10
59.439480
 20
94.957958
 30
0.0
 10
65.359221
 20
94.957958
 30
0.0
 10
71.278964
 20
94.957958
 30
0.0
 10
77.198705
 20
94.957958
 30
0.0
 10
77.198703
 20
92.590057
 30
0.0
 10
89.038182
 20
92.590057
 30
0.0
 10
89.038184
 20
94.957958
 30
0.0
 10
94.957925
 20
94.957958
 30
0.0
 10
94.957925
 20
89.038217
 30
0.0
 10
92.590027
 20
89.038214
 30
0.0
 10
92.590027
 20
77.198727
 30
0.0
 10
94.957925
 20
77.198727
 30
0.0
 10
94.957925
 20
71.278994
 30
0.0
 10
94.957925
 20
65.359253
 30
0.0
 10
94.957925
 20
59.439512
 30
0.0
 10
94.957925
 20
53.519768
 30
0.0
 10
92.590027
 20
53.519760
 30
0.0
 10
92.590027
 20
41.680275
 30
0.0
 10
94.957925
 20
41.680287
 30
0.0
 10
94.957925
 20
35.760543
 30
0.0
 10
94.957925
 20
29.840802
 30
0.0
 10
94.957925
 20
23.921061
 30
0.0
 10
94.957925
 20
18.001320
 30
0.0
 10
92.590027
 20
18.001306
 30
0.0
 10
92.590027
 20
6.161816
 30
0.0
 10
94.957925
 20
6.161844
 30
0.0
  0
LWPOLYLINE
  5
16f
100
AcDbEntity
  8
Layer_1
 62
7
100
AcDbPolyline
 90
3
 70
0
 10
190.861067
 20
6.064703
 30
0.0
 10
190.861067
 20
0.244942
 30
0.0
 10
185.041554
 20
0.244942
 30
0.0
  0
LWPOLYLINE
  5
170
100
AcDbEntity
  8
Layer_1
 62
7
100
AcDbPolyline
 90
15
 70
0
 10
96.144932
 20
18.103679
 30
0.0
 10
96.144932
 20
23.923903
 30
0.0
 10
96.144932
 20
29.843644
 30
0.0
 10
96.144932
 20
35.763385
 30
0.0
 10
96.144932
 20
41.582677
 30
0.0
 10
98.613293
 20
41.582666
 30
0.0
 10
98.613293
 20
53.622667
 30
0.0
 10
96.144932
 20
53.622675
 30
0.0
 10
96.144932
 20
59.442354
 30
0.0
 10
96.144932
 20
65.362095
 30
0.0
 10
96.144932
 20
71.281836
 30
0.0
 10
96.144932
 20
77.101676
 30
0.0
 10
98.613293
 20
77.101667
 30
0.0
 10
98.613293
 20
89.140666
 30
0.0
 10
96.144932
 20
89.140680
 30
0.0
  0
LWPOLYLINE
  5
171
100
AcDbEntity
  8
Layer_1
 62
7
100
AcDbPolyline
 90
23
 70
0
 10
96.144932
 20
18.103679
 30
0.0
 10
98.613293
 20
18.103665
 30
0.0
 10
98.613293
 20
6.064675
 30
0.0
 10
96.144932
 20
6.064703
 30
0.0
 10
96.144932
 20
0.244942
 30
0.0
 10
101.964304
 20
0.244942
 30
0.0
 10
101.964304
 20
2.712693
 30
0.0
 10
114.004338
 20
2.712693
 30
0.0
 10
114.004341
 20
0.244942
 30
0.0
 10
119.823967
 20
0.244942
 30
0.0
 10
125.743727
 20
0.244942
 30
0.0
 10
131.663485
 20
0.244942
 30
0.0
 10
137.483413
 20
0.244942
 30
0.0
 10
137.483410
 20
2.712693
 30
0.0
 10
149.522445
 20
2.712693
 30
0.0
 10
149.522445
 20
0.244942
 30
0.0
 10
155.342517
 20
0.244942
 30
0.0
 10
161.262274
 20
0.244942
 30
0.0
 10
167.182035
 20
0.244942
 30
0.0
 10
173.001517
 20
0.244942
 30
0.0
 10
173.001514
 20
2.712693
 30
0.0
 10
185.041551
 20
2.712693
 30
0.0
 10
185.041554
 20
0.244942
 30
0.0
  0
LWPOLYLINE
  5
172
100
AcDbEntity
  8
Layer_1
 62
7
100
AcDbPolyline
 90
39
 70
0
 10
96.144932
 20
89.140669
 30
0.0
 10
96.144932
 20
94.960800
 30
0.0
 10
101.964304
 20
94.960800
 30
0.0
 10
101.964304
 20
92.492761
 30
0.0
 10
114.004338
 20
92.492583
 30
0.0
 10
114.004341
 20
94.960622
 30
0.0
 10
119.823967
 20
94.960800
 30
0.0
 10
125.743727
 20
94.960800
 30
0.0
 10
131.663485
 20
94.960800
 30
0.0
 10
137.483413
 20
94.960800
 30
0.0
 10
137.483410
 20
92.492761
 30
0.0
 10
149.522445
 20
92.492761
 30
0.0
 10
149.522448
 20
94.960800
 30
0.0
 10
155.342517
 20
94.960800
 30
0.0
 10
161.262274
 20
94.960800
 30
0.0
 10
167.182035
 20
94.960800
 30
0.0
 10
173.001517
 20
94.960800
 30
0.0
 10
173.001514
 20
92.492761
 30
0.0
 10
185.041551
 20
92.492761
 30
0.0
 10
185.041554
 20
94.960800
 30
0.0
 10
190.861067
 20
94.960800
 30
0.0
 10
190.861067
 20
89.140675
 30
0.0
 10
188.393564
 20
89.140672
 30
0.0
 10
188.393564
 20
77.101667
 30
0.0
 10
190.861067
 20
77.101667
 30
0.0
 10
190.861067
 20
71.281836
 30
0.0
 10
190.861067
 20
65.362095
 30
0.0
 10
190.861067
 20
59.442354
 30
0.0
 10
190.861067
 20
53.622675
 30
0.0
 10
188.393564
 20
53.622667
 30
0.0
 10
188.393564
 20
41.582666
 30
0.0
 10
190.861067
 20
41.582677
 30
0.0
 10
190.861067
 20
35.763385
 30
0.0
 10
190.861067
 20
29.843644
 30
0.0
 10
190.861067
 20
23.923903
 30
0.0
 10
190.861067
 20
18.103679
 30
0.0
 10
188.393564
 20
18.103665
 30
0.0
 10
188.393564
 20
6.064675
 30
0.0
 10
190.861067
 20
6.064703
 30
0.0
  0
LWPOLYLINE
  5
173
100
AcDbEntity
  8
Layer_1
 62
7
100
AcDbPolyline
 90
5
 70
1
 10
155.998652
 20
74.564563
 30
0.0
 10
165.682456
 20
74.564563
 30
0.0
 10
165.682456
 20
69.880789
 30
0.0
 10
155.998652
 20
69.880789
 30
0.0
 10
155.998652
 20
74.564563
 30
0.0
  0
LWPOLYLINE
  5
174
100
AcDbEntity
  8
Layer_1
 62
7
100
AcDbPolyline
 90
378
 70
1
 10
6.183676
 20
143.210459
 30
0.0
 10
6.183676
 20
143.181797
 30
0.0
 10
6.168794
 20
143.181797
 30
0.0
 10
6.168794
 20
143.180668
 30
0.0
 10
6.159425
 20
143.180668
 30
0.0
 10
6.143440
 20
140.889816
 30
0.0
 10
2.704407
 20
140.889816
 30
0.0
 10
2.707173
 20
123.457082
 30
0.0
 10
0.255368
 20
123.453780
 30
0.0
 10
0.255368
 20
115.738420
 30
0.0
 10
2.708276
 20
115.713048
 30
0.0
 10
2.708812
 20
114.227524
 30
0.0
 10
2.708812
 20
113.878604
 30
0.0
 10
2.708812
 20
113.529134
 30
0.0
 10
2.708812
 20
113.180214
 30
0.0
 10
2.708812
 20
112.830744
 30
0.0
 10
2.708812
 20
112.625142
 30
0.0
 10
2.708812
 20
112.481824
 30
0.0
 10
2.708812
 20
112.132907
 30
0.0
 10
2.708812
 20
111.783437
 30
0.0
 10
2.708812
 20
111.434517
 30
0.0
 10
2.708812
 20
111.085047
 30
0.0
 10
2.708812
 20
110.736127
 30
0.0
 10
2.708812
 20
110.387213
 30
0.0
 10
2.708812
 20
110.037737
 30
0.0
 10
2.708812
 20
109.688826
 30
0.0
 10
2.708812
 20
109.339350
 30
0.0
 10
2.708812
 20
108.990439
 30
0.0
 10
2.708812
 20
108.641528
 30
0.0
 10
2.708812
 20
108.292052
 30
0.0
 10
2.708812
 20
107.943141
 30
0.0
 10
2.708812
 20
107.593665
 30
0.0
 10
2.708812
 20
107.244725
 30
0.0
 10
2.708812
 20
106.895814
 30
0.0
 10
2.708812
 20
106.546338
 30
0.0
 10
2.708812
 20
106.197427
 30
0.0
 10
2.708812
 20
105.847951
 30
0.0
 10
2.708812
 20
105.499040
 30
0.0
 10
2.708812
 20
105.150128
 30
0.0
 10
2.708812
 20
104.800653
 30
0.0
 10
2.708812
 20
104.451741
 30
0.0
 10
2.708812
 20
104.102802
 30
0.0
 10
2.708812
 20
103.753326
 30
0.0
 10
2.708812
 20
103.404415
 30
0.0
 10
2.708812
 20
103.054939
 30
0.0
 10
2.708812
 20
102.706027
 30
0.0
 10
2.708812
 20
102.357116
 30
0.0
 10
2.708812
 20
102.007640
 30
0.0
 10
2.708812
 20
101.658729
 30
0.0
 10
2.708812
 20
101.309253
 30
0.0
 10
2.708812
 20
100.960342
 30
0.0
 10
2.708812
 20
100.611402
 30
0.0
 10
2.708812
 20
100.261955
 30
0.0
 10
2.708812
 20
99.913015
 30
0.0
 10
2.708812
 20
99.563539
 30
0.0
 10
2.708812
 20
99.214628
 30
0.0
 10
2.708812
 20
98.865717
 30
0.0
 10
2.708812
 20
98.491434
 30
0.0
 10
2.710477
 20
100.731036
 30
0.0
 10
2.711013
 20
98.492534
 30
0.0
 10
3.171829
 20
98.492534
 30
0.0
 10
3.542246
 20
98.492534
 30
0.0
 10
3.912662
 20
98.492534
 30
0.0
 10
4.283079
 20
98.492534
 30
0.0
 10
4.653496
 20
98.492534
 30
0.0
 10
5.023361
 20
98.492534
 30
0.0
 10
5.393778
 20
98.492534
 30
0.0
 10
5.764194
 20
98.492534
 30
0.0
 10
6.134611
 20
98.492534
 30
0.0
 10
6.150596
 20
96.171934
 30
0.0
 10
6.520462
 20
96.171934
 30
0.0
 10
6.890327
 20
96.171934
 30
0.0
 10
7.260192
 20
96.171934
 30
0.0
 10
7.630058
 20
96.171934
 30
0.0
 10
7.999923
 20
96.171934
 30
0.0
 10
8.369789
 20
96.171934
 30
0.0
 10
8.739654
 20
96.171934
 30
0.0
 10
9.109520
 20
96.171934
 30
0.0
 10
9.479385
 20
96.171934
 30
0.0
 10
9.849250
 20
96.171934
 30
0.0
 10
10.219116
 20
96.171934
 30
0.0
 10
10.588981
 20
96.171934
 30
0.0
 10
10.958847
 20
96.171934
 30
0.0
 10
11.328712
 20
96.171934
 30
0.0
 10
11.698578
 20
96.171934
 30
0.0
 10
12.068443
 20
96.171934
 30
0.0
 10
12.438309
 20
96.171934
 30
0.0
 10
12.808726
 20
96.171934
 30
0.0
 10
13.178591
 20
96.171934
 30
0.0
 10
13.548456
 20
96.171934
 30
0.0
 10
13.918322
 20
96.171934
 30
0.0
 10
14.288187
 20
96.171934
 30
0.0
 10
14.658053
 20
96.171934
 30
0.0
 10
15.027918
 20
96.171934
 30
0.0
 10
15.397784
 20
96.171934
 30
0.0
 10
15.767649
 20
96.171934
 30
0.0
 10
16.137514
 20
96.171934
 30
0.0
 10
16.507380
 20
96.171934
 30
0.0
 10
16.877245
 20
96.171934
 30
0.0
 10
17.247111
 20
96.171934
 30
0.0
 10
17.616976
 20
96.171934
 30
0.0
 10
17.971959
 20
96.171934
 30
0.0
 10
17.971959
 20
96.200579
 30
0.0
 10
17.986840
 20
96.200579
 30
0.0
 10
17.986840
 20
96.200579
 30
0.0
 10
17.996763
 20
96.200579
 30
0.0
 10
17.991802
 20
96.652587
 30
0.0
 10
18.004479
 20
98.174498
 30
0.0
 10
18.000621
 20
98.490333
 30
0.0
 10
18.007237
 20
98.490333
 30
0.0
 10
18.007237
 20
98.490333
 30
0.0
 10
41.663191
 20
98.490333
 30
0.0
 10
41.659325
 20
96.169733
 30
0.0
 10
42.029194
 20
96.169733
 30
0.0
 10
42.399060
 20
96.169733
 30
0.0
 10
42.768924
 20
96.169733
 30
0.0
 10
43.138790
 20
96.169733
 30
0.0
 10
43.508656
 20
96.169733
 30
0.0
 10
43.878520
 20
96.169733
 30
0.0
 10
44.248386
 20
96.169733
 30
0.0
 10
44.618252
 20
96.169733
 30
0.0
 10
44.988116
 20
96.169733
 30
0.0
 10
45.357982
 20
96.169733
 30
0.0
 10
45.727849
 20
96.169733
 30
0.0
 10
46.097715
 20
96.169733
 30
0.0
 10
46.467578
 20
96.169733
 30
0.0
 10
46.837445
 20
96.169733
 30
0.0
 10
47.207311
 20
96.169733
 30
0.0
 10
47.577175
 20
96.169733
 30
0.0
 10
47.947041
 20
96.169733
 30
0.0
 10
48.316907
 20
96.169733
 30
0.0
 10
48.686771
 20
96.169733
 30
0.0
 10
49.056637
 20
96.169733
 30
0.0
 10
49.426503
 20
96.169733
 30
0.0
 10
49.796367
 20
96.169733
 30
0.0
 10
50.166233
 20
96.169733
 30
0.0
 10
50.536100
 20
96.169733
 30
0.0
 10
50.905966
 20
96.169733
 30
0.0
 10
51.275829
 20
96.169733
 30
0.0
 10
51.645696
 20
96.169733
 30
0.0
 10
52.015562
 20
96.169733
 30
0.0
 10
52.385426
 20
96.169733
 30
0.0
 10
52.755292
 20
96.169733
 30
0.0
 10
53.125158
 20
96.169733
 30
0.0
 10
53.480140
 20
96.169733
 30
0.0
 10
53.480140
 20
96.198378
 30
0.0
 10
53.495013
 20
96.198378
 30
0.0
 10
53.495013
 20
96.198378
 30
0.0
 10
53.504948
 20
96.198378
 30
0.0
 10
53.501081
 20
98.464425
 30
0.0
 10
70.426148
 20
98.489261
 30
0.0
 10
77.157038
 20
98.489261
 30
0.0
 10
77.157038
 20
98.489261
 30
0.0
 10
77.181845
 20
98.489261
 30
0.0
 10
77.167509
 20
97.338866
 30
0.0
 10
77.173576
 20
96.646011
 30
0.0
 10
77.167509
 20
96.169761
 30
0.0
 10
77.537375
 20
96.169761
 30
0.0
 10
77.907238
 20
96.169761
 30
0.0
 10
78.277105
 20
96.169761
 30
0.0
 10
78.646971
 20
96.169761
 30
0.0
 10
79.016835
 20
96.169761
 30
0.0
 10
79.386701
 20
96.169761
 30
0.0
 10
79.756567
 20
96.169761
 30
0.0
 10
80.126431
 20
96.169761
 30
0.0
 10
80.496297
 20
96.169761
 30
0.0
 10
80.866163
 20
96.169761
 30
0.0
 10
81.236027
 20
96.169761
 30
0.0
 10
81.605893
 20
96.169761
 30
0.0
 10
81.975757
 20
96.169761
 30
0.0
 10
82.346173
 20
96.169761
 30
0.0
 10
82.716040
 20
96.169761
 30
0.0
 10
83.085903
 20
96.169761
 30
0.0
 10
83.455770
 20
96.169761
 30
0.0
 10
83.825636
 20
96.169761
 30
0.0
 10
84.195499
 20
96.169761
 30
0.0
 10
84.565366
 20
96.169761
 30
0.0
 10
84.935232
 20
96.169761
 30
0.0
 10
85.305096
 20
96.169761
 30
0.0
 10
85.674962
 20
96.169761
 30
0.0
 10
86.044828
 20
96.169761
 30
0.0
 10
86.414692
 20
96.169761
 30
0.0
 10
86.784558
 20
96.169761
 30
0.0
 10
87.154425
 20
96.169761
 30
0.0
 10
87.524291
 20
96.169761
 30
0.0
 10
87.894154
 20
96.169761
 30
0.0
 10
88.264021
 20
96.169761
 30
0.0
 10
88.633887
 20
96.169761
 30
0.0
 10
88.988319
 20
96.169761
 30
0.0
 10
88.988319
 20
96.198406
 30
0.0
 10
89.003756
 20
96.198406
 30
0.0
 10
89.003756
 20
96.198406
 30
0.0
 10
89.013126
 20
96.198406
 30
0.0
 10
89.029100
 20
98.489261
 30
0.0
 10
92.467580
 20
98.489261
 30
0.0
 10
92.464757
 20
115.921995
 30
0.0
 10
94.916563
 20
115.925297
 30
0.0
 10
94.916563
 20
123.640657
 30
0.0
 10
92.463657
 20
123.666000
 30
0.0
 10
92.463092
 20
125.151525
 30
0.0
 10
92.463092
 20
125.500445
 30
0.0
 10
92.463092
 20
125.849915
 30
0.0
 10
92.463092
 20
126.198835
 30
0.0
 10
92.463092
 20
126.548305
 30
0.0
 10
92.463092
 20
126.753909
 30
0.0
 10
92.463092
 20
126.897224
 30
0.0
 10
92.463092
 20
127.246144
 30
0.0
 10
92.463092
 20
127.595614
 30
0.0
 10
92.463092
 20
127.944534
 30
0.0
 10
92.463092
 20
128.294004
 30
0.0
 10
92.463092
 20
128.642924
 30
0.0
 10
92.463092
 20
128.991841
 30
0.0
 10
92.463092
 20
129.341311
 30
0.0
 10
92.463092
 20
129.690231
 30
0.0
 10
92.463092
 20
130.039701
 30
0.0
 10
92.463092
 20
130.388621
 30
0.0
 10
92.463092
 20
130.737541
 30
0.0
 10
92.463092
 20
131.087011
 30
0.0
 10
92.463092
 20
131.435931
 30
0.0
 10
92.463092
 20
131.785401
 30
0.0
 10
92.463092
 20
132.134321
 30
0.0
 10
92.463092
 20
132.483240
 30
0.0
 10
92.463092
 20
132.832711
 30
0.0
 10
92.463092
 20
133.181630
 30
0.0
 10
92.463092
 20
133.531101
 30
0.0
 10
92.463092
 20
133.880020
 30
0.0
 10
92.463092
 20
134.228937
 30
0.0
 10
92.463092
 20
134.578407
 30
0.0
 10
92.463092
 20
134.927327
 30
0.0
 10
92.463092
 20
135.276247
 30
0.0
 10
92.463092
 20
135.625717
 30
0.0
 10
92.463092
 20
135.974637
 30
0.0
 10
92.463092
 20
136.324107
 30
0.0
 10
92.463092
 20
136.673027
 30
0.0
 10
92.463092
 20
137.021947
 30
0.0
 10
92.463092
 20
137.371417
 30
0.0
 10
92.463092
 20
137.720337
 30
0.0
 10
92.463092
 20
138.069807
 30
0.0
 10
92.463092
 20
138.418727
 30
0.0
 10
92.463092
 20
138.767646
 30
0.0
 10
92.463092
 20
139.117116
 30
0.0
 10
92.463092
 20
139.466033
 30
0.0
 10
92.463092
 20
139.815506
 30
0.0
 10
92.463092
 20
140.164423
 30
0.0
 10
92.463092
 20
140.513343
 30
0.0
 10
92.463092
 20
140.887618
 30
0.0
 10
92.461399
 20
138.648032
 30
0.0
 10
92.460834
 20
140.886517
 30
0.0
 10
92.000019
 20
140.886517
 30
0.0
 10
91.629603
 20
140.886517
 30
0.0
 10
91.259186
 20
140.886517
 30
0.0
 10
90.888769
 20
140.886517
 30
0.0
 10
90.518353
 20
140.886517
 30
0.0
 10
90.148486
 20
140.886517
 30
0.0
 10
89.778070
 20
140.886517
 30
0.0
 10
89.407653
 20
140.886517
 30
0.0
 10
89.037236
 20
140.886517
 30
0.0
 10
89.021262
 20
143.207132
 30
0.0
 10
88.651399
 20
143.207132
 30
0.0
 10
88.281533
 20
143.207132
 30
0.0
 10
87.911666
 20
143.207132
 30
0.0
 10
87.541803
 20
143.207132
 30
0.0
 10
87.171936
 20
143.207132
 30
0.0
 10
86.802070
 20
143.207132
 30
0.0
 10
86.432204
 20
143.207132
 30
0.0
 10
86.062340
 20
143.207132
 30
0.0
 10
85.692474
 20
143.207132
 30
0.0
 10
85.322608
 20
143.207132
 30
0.0
 10
84.952744
 20
143.207132
 30
0.0
 10
84.582878
 20
143.207132
 30
0.0
 10
84.213011
 20
143.207132
 30
0.0
 10
83.843148
 20
143.207132
 30
0.0
 10
83.473284
 20
143.207132
 30
0.0
 10
83.103418
 20
143.207132
 30
0.0
 10
82.733555
 20
143.207132
 30
0.0
 10
82.363138
 20
143.207132
 30
0.0
 10
81.993272
 20
143.207132
 30
0.0
 10
81.623405
 20
143.207132
 30
0.0
 10
81.253539
 20
143.207132
 30
0.0
 10
80.883675
 20
143.207132
 30
0.0
 10
80.513809
 20
143.207132
 30
0.0
 10
80.143943
 20
143.207132
 30
0.0
 10
79.774079
 20
143.207132
 30
0.0
 10
79.404213
 20
143.207132
 30
0.0
 10
79.034346
 20
143.207132
 30
0.0
 10
78.664483
 20
143.207132
 30
0.0
 10
78.294617
 20
143.207132
 30
0.0
 10
77.924750
 20
143.207132
 30
0.0
 10
77.554887
 20
143.207132
 30
0.0
 10
77.200455
 20
143.207132
 30
0.0
 10
77.200455
 20
143.178469
 30
0.0
 10
77.185018
 20
143.178469
 30
0.0
 10
77.185018
 20
143.177340
 30
0.0
 10
77.175083
 20
143.177340
 30
0.0
 10
77.180051
 20
142.725342
 30
0.0
 10
77.167379
 20
141.229894
 30
0.0
 10
77.171781
 20
140.887590
 30
0.0
 10
77.164613
 20
140.887590
 30
0.0
 10
77.164613
 20
140.886461
 30
0.0
 10
53.508656
 20
140.886461
 30
0.0
 10
53.512522
 20
143.207075
 30
0.0
 10
53.142659
 20
143.207075
 30
0.0
 10
52.772793
 20
143.207075
 30
0.0
 10
52.402926
 20
143.207075
 30
0.0
 10
52.033063
 20
143.207075
 30
0.0
 10
51.663196
 20
143.207075
 30
0.0
 10
51.293330
 20
143.207075
 30
0.0
 10
50.923467
 20
143.207075
 30
0.0
 10
50.553600
 20
143.207075
 30
0.0
 10
50.183734
 20
143.207075
 30
0.0
 10
49.813868
 20
143.207075
 30
0.0
 10
49.444004
 20
143.207075
 30
0.0
 10
49.074138
 20
143.207075
 30
0.0
 10
48.704271
 20
143.207075
 30
0.0
 10
48.334408
 20
143.207075
 30
0.0
 10
47.964542
 20
143.207075
 30
0.0
 10
47.594675
 20
143.207075
 30
0.0
 10
47.224812
 20
143.207075
 30
0.0
 10
46.854945
 20
143.207075
 30
0.0
 10
46.485079
 20
143.207075
 30
0.0
 10
46.115216
 20
143.207075
 30
0.0
 10
45.745349
 20
143.207075
 30
0.0
 10
45.375483
 20
143.207075
 30
0.0
 10
45.005617
 20
143.207075
 30
0.0
 10
44.635753
 20
143.207075
 30
0.0
 10
44.265887
 20
143.207075
 30
0.0
 10
43.896020
 20
143.207075
 30
0.0
 10
43.526157
 20
143.207075
 30
0.0
 10
43.156291
 20
143.207075
 30
0.0
 10
42.786424
 20
143.207075
 30
0.0
 10
42.416561
 20
143.207075
 30
0.0
 10
42.046694
 20
143.207075
 30
0.0
 10
41.692263
 20
143.207075
 30
0.0
 10
41.692263
 20
143.178413
 30
0.0
 10
41.676825
 20
143.178413
 30
0.0
 10
41.676825
 20
143.177284
 30
0.0
 10
41.666919
 20
143.177284
 30
0.0
 10
41.670786
 20
140.911237
 30
0.0
 10
24.745719
 20
140.886430
 30
0.0
 10
18.014829
 20
140.886430
 30
0.0
 10
18.014829
 20
140.887559
 30
0.0
 10
17.990575
 20
140.887559
 30
0.0
 10
18.004907
 20
142.012039
 30
0.0
 10
17.998291
 20
142.730822
 30
0.0
 10
18.004353
 20
143.207072
 30
0.0
 10
17.634488
 20
143.207072
 30
0.0
 10
17.264622
 20
143.207072
 30
0.0
 10
16.894757
 20
143.207072
 30
0.0
 10
16.524891
 20
143.207072
 30
0.0
 10
16.155026
 20
143.207072
 30
0.0
 10
15.785161
 20
143.207072
 30
0.0
 10
15.415295
 20
143.207072
 30
0.0
 10
15.045430
 20
143.207072
 30
0.0
 10
14.675564
 20
143.207072
 30
0.0
 10
14.305699
 20
143.207072
 30
0.0
 10
13.935833
 20
143.207072
 30
0.0
 10
13.565968
 20
143.207072
 30
0.0
 10
13.196103
 20
143.207072
 30
0.0
 10
12.825686
 20
143.207072
 30
0.0
 10
12.455820
 20
143.207072
 30
0.0
 10
12.085955
 20
143.207072
 30
0.0
 10
11.716090
 20
143.207072
 30
0.0
 10
11.346224
 20
143.207072
 30
0.0
 10
10.976359
 20
143.207072
 30
0.0
 10
10.606493
 20
143.207072
 30
0.0
 10
10.236628
 20
143.207072
 30
0.0
 10
9.866762
 20
143.207072
 30
0.0
 10
9.496897
 20
143.207072
 30
0.0
 10
9.127031
 20
143.207072
 30
0.0
 10
8.757166
 20
143.207072
 30
0.0
 10
8.387300
 20
143.207072
 30
0.0
 10
8.017435
 20
143.207072
 30
0.0
 10
7.647569
 20
143.207072
 30
0.0
 10
7.277704
 20
143.207072
 30
0.0
 10
6.907839
 20
143.207072
 30
0.0
 10
6.537973
 20
143.207072
 30
0.0
 10
6.183542
 20
143.207072
 30
0.0
 10
6.183676
 20
143.210459
 30
0.0
  0
LWPOLYLINE
  5
175
100
AcDbEntity
  8
Layer_1
 62
7
100
AcDbPolyline
 90
378
 70
1
 10
6.183664
 20
191.112576
 30
0.0
 10
6.183664
 20
191.083913
 30
0.0
 10
6.168783
 20
191.083913
 30
0.0
 10
6.168783
 20
191.082785
 30
0.0
 10
6.159413
 20
191.082785
 30
0.0
 10
6.143428
 20
188.791933
 30
0.0
 10
2.704396
 20
188.791933
 30
0.0
 10
2.707161
 20
171.359199
 30
0.0
 10
0.255356
 20
171.355897
 30
0.0
 10
0.255356
 20
163.640537
 30
0.0
 10
2.708264
 20
163.615165
 30
0.0
 10
2.708828
 20
162.129641
 30
0.0
 10
2.708828
 20
161.780721
 30
0.0
 10
2.708828
 20
161.431251
 30
0.0
 10
2.708828
 20
161.082331
 30
0.0
 10
2.708828
 20
160.732861
 30
0.0
 10
2.708828
 20
160.527259
 30
0.0
 10
2.708828
 20
160.383941
 30
0.0
 10
2.708828
 20
160.035024
 30
0.0
 10
2.708828
 20
159.685554
 30
0.0
 10
2.708828
 20
159.336634
 30
0.0
 10
2.708828
 20
158.987164
 30
0.0
 10
2.708828
 20
158.638244
 30
0.0
 10
2.708828
 20
158.289330
 30
0.0
 10
2.708828
 20
157.939854
 30
0.0
 10
2.708828
 20
157.590943
 30
0.0
 10
2.708828
 20
157.241467
 30
0.0
 10
2.708828
 20
156.892556
 30
0.0
 10
2.708828
 20
156.543644
 30
0.0
 10
2.708828
 20
156.194169
 30
0.0
 10
2.708828
 20
155.845257
 30
0.0
 10
2.708828
 20
155.495782
 30
0.0
 10
2.708828
 20
155.146842
 30
0.0
 10
2.708828
 20
154.797931
 30
0.0
 10
2.708828
 20
154.448455
 30
0.0
 10
2.708828
 20
154.099544
 30
0.0
 10
2.708828
 20
153.750068
 30
0.0
 10
2.708828
 20
153.401156
 30
0.0
 10
2.708828
 20
153.052245
 30
0.0
 10
2.708828
 20
152.702769
 30
0.0
 10
2.708828
 20
152.353858
 30
0.0
 10
2.708828
 20
152.004918
 30
0.0
 10
2.708828
 20
151.655443
 30
0.0
 10
2.708828
 20
151.306531
 30
0.0
 10
2.708828
 20
150.957056
 30
0.0
 10
2.708828
 20
150.608144
 30
0.0
 10
2.708828
 20
150.259233
 30
0.0
 10
2.708828
 20
149.909757
 30
0.0
 10
2.708828
 20
149.560846
 30
0.0
 10
2.708828
 20
149.211370
 30
0.0
 10
2.708828
 20
148.862459
 30
0.0
 10
2.708828
 20
148.513519
 30
0.0
 10
2.708828
 20
148.164072
 30
0.0
 10
2.708828
 20
147.815132
 30
0.0
 10
2.708828
 20
147.465656
 30
0.0
 10
2.708828
 20
147.116745
 30
0.0
 10
2.708828
 20
146.767834
 30
0.0
 10
2.708828
 20
146.393550
 30
0.0
 10
2.710493
 20
148.633153
 30
0.0
 10
2.711058
 20
146.394651
 30
0.0
 10
3.171874
 20
146.394651
 30
0.0
 10
3.542290
 20
146.394651
 30
0.0
 10
3.912707
 20
146.394651
 30
0.0
 10
4.283124
 20
146.394651
 30
0.0
 10
4.653540
 20
146.394651
 30
0.0
 10
5.023406
 20
146.394651
 30
0.0
 10
5.393822
 20
146.394651
 30
0.0
 10
5.764239
 20
146.394651
 30
0.0
 10
6.134656
 20
146.394651
 30
0.0
 10
6.150641
 20
144.074051
 30
0.0
 10
6.520506
 20
144.074051
 30
0.0
 10
6.890372
 20
144.074051
 30
0.0
 10
7.260237
 20
144.074051
 30
0.0
 10
7.630102
 20
144.074051
 30
0.0
 10
7.999968
 20
144.074051
 30
0.0
 10
8.369833
 20
144.074051
 30
0.0
 10
8.739699
 20
144.074051
 30
0.0
 10
9.109564
 20
144.074051
 30
0.0
 10
9.479430
 20
144.074051
 30
0.0
 10
9.849295
 20
144.074051
 30
0.0
 10
10.219161
 20
144.074051
 30
0.0
 10
10.589026
 20
144.074051
 30
0.0
 10
10.958892
 20
144.074051
 30
0.0
 10
11.328757
 20
144.074051
 30
0.0
 10
11.698622
 20
144.074051
 30
0.0
 10
12.068488
 20
144.074051
 30
0.0
 10
12.438353
 20
144.074051
 30
0.0
 10
12.808770
 20
144.074051
 30
0.0
 10
13.178636
 20
144.074051
 30
0.0
 10
13.548501
 20
144.074051
 30
0.0
 10
13.918366
 20
144.074051
 30
0.0
 10
14.288232
 20
144.074051
 30
0.0
 10
14.658097
 20
144.074051
 30
0.0
 10
15.027963
 20
144.074051
 30
0.0
 10
15.397828
 20
144.074051
 30
0.0
 10
15.767694
 20
144.074051
 30
0.0
 10
16.137559
 20
144.074051
 30
0.0
 10
16.507424
 20
144.074051
 30
0.0
 10
16.877290
 20
144.074051
 30
0.0
 10
17.247155
 20
144.074051
 30
0.0
 10
17.617021
 20
144.074051
 30
0.0
 10
17.972003
 20
144.074051
 30
0.0
 10
17.972003
 20
144.102696
 30
0.0
 10
17.986885
 20
144.102696
 30
0.0
 10
17.986885
 20
144.102696
 30
0.0
 10
17.996808
 20
144.102696
 30
0.0
 10
17.991846
 20
144.554703
 30
0.0
 10
18.004524
 20
146.076615
 30
0.0
 10
18.000666
 20
146.392450
 30
0.0
 10
18.007281
 20
146.392450
 30
0.0
 10
18.007281
 20
146.392450
 30
0.0
 10
41.663236
 20
146.392450
 30
0.0
 10
41.659370
 20
144.071849
 30
0.0
 10
42.029236
 20
144.071849
 30
0.0
 10
42.399105
 20
144.071849
 30
0.0
 10
42.768969
 20
144.071849
 30
0.0
 10
43.138835
 20
144.071849
 30
0.0
 10
43.508701
 20
144.071849
 30
0.0
 10
43.878565
 20
144.071849
 30
0.0
 10
44.248431
 20
144.071849
 30
0.0
 10
44.618298
 20
144.071849
 30
0.0
 10
44.988161
 20
144.071849
 30
0.0
 10
45.358027
 20
144.071849
 30
0.0
 10
45.727894
 20
144.071849
 30
0.0
 10
46.097760
 20
144.071849
 30
0.0
 10
46.467624
 20
144.071849
 30
0.0
 10
46.837490
 20
144.071849
 30
0.0
 10
47.207356
 20
144.071849
 30
0.0
 10
47.577220
 20
144.071849
 30
0.0
 10
47.947086
 20
144.071849
 30
0.0
 10
48.316952
 20
144.071849
 30
0.0
 10
48.686816
 20
144.071849
 30
0.0
 10
49.056682
 20
144.071849
 30
0.0
 10
49.426549
 20
144.071849
 30
0.0
 10
49.796412
 20
144.071849
 30
0.0
 10
50.166278
 20
144.071849
 30
0.0
 10
50.536145
 20
144.071849
 30
0.0
 10
50.906011
 20
144.071849
 30
0.0
 10
51.275875
 20
144.071849
 30
0.0
 10
51.645741
 20
144.071849
 30
0.0
 10
52.015607
 20
144.071849
 30
0.0
 10
52.385471
 20
144.071849
 30
0.0
 10
52.755337
 20
144.071849
 30
0.0
 10
53.125203
 20
144.071849
 30
0.0
 10
53.480185
 20
144.071849
 30
0.0
 10
53.480185
 20
144.100495
 30
0.0
 10
53.495059
 20
144.100495
 30
0.0
 10
53.495059
 20
144.100495
 30
0.0
 10
53.504993
 20
144.100495
 30
0.0
 10
53.501126
 20
146.366542
 30
0.0
 10
70.426193
 20
146.391377
 30
0.0
 10
77.157083
 20
146.391377
 30
0.0
 10
77.157083
 20
146.391377
 30
0.0
 10
77.181891
 20
146.391377
 30
0.0
 10
77.167554
 20
145.240983
 30
0.0
 10
77.173622
 20
144.548128
 30
0.0
 10
77.167554
 20
144.071878
 30
0.0
 10
77.537420
 20
144.071878
 30
0.0
 10
77.907284
 20
144.071878
 30
0.0
 10
78.277150
 20
144.071878
 30
0.0
 10
78.647016
 20
144.071878
 30
0.0
 10
79.016880
 20
144.071878
 30
0.0
 10
79.386746
 20
144.071878
 30
0.0
 10
79.756612
 20
144.071878
 30
0.0
 10
80.126476
 20
144.071878
 30
0.0
 10
80.496342
 20
144.071878
 30
0.0
 10
80.866209
 20
144.071878
 30
0.0
 10
81.236072
 20
144.071878
 30
0.0
 10
81.605938
 20
144.071878
 30
0.0
 10
81.975802
 20
144.071878
 30
0.0
 10
82.346219
 20
144.071878
 30
0.0
 10
82.716085
 20
144.071878
 30
0.0
 10
83.085948
 20
144.071878
 30
0.0
 10
83.455815
 20
144.071878
 30
0.0
 10
83.825681
 20
144.071878
 30
0.0
 10
84.195545
 20
144.071878
 30
0.0
 10
84.565411
 20
144.071878
 30
0.0
 10
84.935277
 20
144.071878
 30
0.0
 10
85.305141
 20
144.071878
 30
0.0
 10
85.675007
 20
144.071878
 30
0.0
 10
86.044873
 20
144.071878
 30
0.0
 10
86.414737
 20
144.071878
 30
0.0
 10
86.784603
 20
144.071878
 30
0.0
 10
87.154470
 20
144.071878
 30
0.0
 10
87.524336
 20
144.071878
 30
0.0
 10
87.894200
 20
144.071878
 30
0.0
 10
88.264066
 20
144.071878
 30
0.0
 10
88.633932
 20
144.071878
 30
0.0
 10
88.988364
 20
144.071878
 30
0.0
 10
88.988364
 20
144.100523
 30
0.0
 10
89.003801
 20
144.100523
 30
0.0
 10
89.003801
 20
144.100523
 30
0.0
 10
89.013171
 20
144.100523
 30
0.0
 10
89.029145
 20
146.391377
 30
0.0
 10
92.467625
 20
146.391377
 30
0.0
 10
92.464803
 20
163.824111
 30
0.0
 10
94.916608
 20
163.827413
 30
0.0
 10
94.916608
 20
171.542773
 30
0.0
 10
92.463702
 20
171.568117
 30
0.0
 10
92.463137
 20
173.053642
 30
0.0
 10
92.463137
 20
173.402561
 30
0.0
 10
92.463137
 20
173.752032
 30
0.0
 10
92.463137
 20
174.100951
 30
0.0
 10
92.463137
 20
174.450421
 30
0.0
 10
92.463137
 20
174.656026
 30
0.0
 10
92.463137
 20
174.799341
 30
0.0
 10
92.463137
 20
175.148261
 30
0.0
 10
92.463137
 20
175.497731
 30
0.0
 10
92.463137
 20
175.846651
 30
0.0
 10
92.463137
 20
176.196121
 30
0.0
 10
92.463137
 20
176.545041
 30
0.0
 10
92.463137
 20
176.893958
 30
0.0
 10
92.463137
 20
177.243428
 30
0.0
 10
92.463137
 20
177.592348
 30
0.0
 10
92.463137
 20
177.941818
 30
0.0
 10
92.463137
 20
178.290738
 30
0.0
 10
92.463137
 20
178.639658
 30
0.0
 10
92.463137
 20
178.989128
 30
0.0
 10
92.463137
 20
179.338048
 30
0.0
 10
92.463137
 20
179.687518
 30
0.0
 10
92.463137
 20
180.036437
 30
0.0
 10
92.463137
 20
180.385357
 30
0.0
 10
92.463137
 20
180.734827
 30
0.0
 10
92.463137
 20
181.083747
 30
0.0
 10
92.463137
 20
181.433217
 30
0.0
 10
92.463137
 20
181.782137
 30
0.0
 10
92.463137
 20
182.131054
 30
0.0
 10
92.463137
 20
182.480524
 30
0.0
 10
92.463137
 20
182.829444
 30
0.0
 10
92.463137
 20
183.178364
 30
0.0
 10
92.463137
 20
183.527834
 30
0.0
 10
92.463137
 20
183.876754
 30
0.0
 10
92.463137
 20
184.226224
 30
0.0
 10
92.463137
 20
184.575144
 30
0.0
 10
92.463137
 20
184.924064
 30
0.0
 10
92.463137
 20
185.273534
 30
0.0
 10
92.463137
 20
185.622453
 30
0.0
 10
92.463137
 20
185.971924
 30
0.0
 10
92.463137
 20
186.320843
 30
0.0
 10
92.463137
 20
186.669763
 30
0.0
 10
92.463137
 20
187.019233
 30
0.0
 10
92.463137
 20
187.368150
 30
0.0
 10
92.463137
 20
187.717623
 30
0.0
 10
92.463137
 20
188.066540
 30
0.0
 10
92.463137
 20
188.415460
 30
0.0
 10
92.463137
 20
188.789735
 30
0.0
 10
92.461444
 20
186.550149
 30
0.0
 10
92.460880
 20
188.788634
 30
0.0
 10
92.000064
 20
188.788634
 30
0.0
 10
91.629648
 20
188.788634
 30
0.0
 10
91.259231
 20
188.788634
 30
0.0
 10
90.888814
 20
188.788634
 30
0.0
 10
90.518398
 20
188.788634
 30
0.0
 10
90.148531
 20
188.788634
 30
0.0
 10
89.778115
 20
188.788634
 30
0.0
 10
89.407698
 20
188.788634
 30
0.0
 10
89.037281
 20
188.788634
 30
0.0
 10
89.021308
 20
191.109249
 30
0.0
 10
88.651444
 20
191.109249
 30
0.0
 10
88.281578
 20
191.109249
 30
0.0
 10
87.911711
 20
191.109249
 30
0.0
 10
87.541848
 20
191.109249
 30
0.0
 10
87.171982
 20
191.109249
 30
0.0
 10
86.802115
 20
191.109249
 30
0.0
 10
86.432249
 20
191.109249
 30
0.0
 10
86.062385
 20
191.109249
 30
0.0
 10
85.692519
 20
191.109249
 30
0.0
 10
85.322653
 20
191.109249
 30
0.0
 10
84.952789
 20
191.109249
 30
0.0
 10
84.582923
 20
191.109249
 30
0.0
 10
84.213057
 20
191.109249
 30
0.0
 10
83.843193
 20
191.109249
 30
0.0
 10
83.473327
 20
191.109249
 30
0.0
 10
83.103463
 20
191.109249
 30
0.0
 10
82.733600
 20
191.109249
 30
0.0
 10
82.363183
 20
191.109249
 30
0.0
 10
81.993317
 20
191.109249
 30
0.0
 10
81.623450
 20
191.109249
 30
0.0
 10
81.253584
 20
191.109249
 30
0.0
 10
80.883720
 20
191.109249
 30
0.0
 10
80.513854
 20
191.109249
 30
0.0
 10
80.143988
 20
191.109249
 30
0.0
 10
79.774124
 20
191.109249
 30
0.0
 10
79.404258
 20
191.109249
 30
0.0
 10
79.034392
 20
191.109249
 30
0.0
 10
78.664528
 20
191.109249
 30
0.0
 10
78.294662
 20
191.109249
 30
0.0
 10
77.924795
 20
191.109249
 30
0.0
 10
77.554932
 20
191.109249
 30
0.0
 10
77.200500
 20
191.109249
 30
0.0
 10
77.200500
 20
191.080586
 30
0.0
 10
77.185063
 20
191.080586
 30
0.0
 10
77.185063
 20
191.079457
 30
0.0
 10
77.175129
 20
191.079457
 30
0.0
 10
77.180096
 20
190.627459
 30
0.0
 10
77.167424
 20
189.132011
 30
0.0
 10
77.171827
 20
188.789706
 30
0.0
 10
77.164658
 20
188.789706
 30
0.0
 10
77.164658
 20
188.788578
 30
0.0
 10
53.508701
 20
188.788578
 30
0.0
 10
53.512568
 20
191.109192
 30
0.0
 10
53.142704
 20
191.109192
 30
0.0
 10
52.772838
 20
191.109192
 30
0.0
 10
52.402971
 20
191.109192
 30
0.0
 10
52.033108
 20
191.109192
 30
0.0
 10
51.663242
 20
191.109192
 30
0.0
 10
51.293375
 20
191.109192
 30
0.0
 10
50.923512
 20
191.109192
 30
0.0
 10
50.553645
 20
191.109192
 30
0.0
 10
50.183779
 20
191.109192
 30
0.0
 10
49.813913
 20
191.109192
 30
0.0
 10
49.444049
 20
191.109192
 30
0.0
 10
49.074183
 20
191.109192
 30
0.0
 10
48.704317
 20
191.109192
 30
0.0
 10
48.334453
 20
191.109192
 30
0.0
 10
47.964587
 20
191.109192
 30
0.0
 10
47.594720
 20
191.109192
 30
0.0
 10
47.224857
 20
191.109192
 30
0.0
 10
46.854991
 20
191.109192
 30
0.0
 10
46.485124
 20
191.109192
 30
0.0
 10
46.115261
 20
191.109192
 30
0.0
 10
45.745394
 20
191.109192
 30
0.0
 10
45.375528
 20
191.109192
 30
0.0
 10
45.005662
 20
191.109192
 30
0.0
 10
44.635798
 20
191.109192
 30
0.0
 10
44.265932
 20
191.109192
 30
0.0
 10
43.896066
 20
191.109192
 30
0.0
 10
43.526202
 20
191.109192
 30
0.0
 10
43.156336
 20
191.109192
 30
0.0
 10
42.786469
 20
191.109192
 30
0.0
 10
42.416606
 20
191.109192
 30
0.0
 10
42.046739
 20
191.109192
 30
0.0
 10
41.692308
 20
191.109192
 30
0.0
 10
41.692308
 20
191.080530
 30
0.0
 10
41.676870
 20
191.080530
 30
0.0
 10
41.676870
 20
191.079401
 30
0.0
 10
41.666964
 20
191.079401
 30
0.0
 10
41.670831
 20
188.813354
 30
0.0
 10
24.745764
 20
188.788547
 30
0.0
 10
18.014874
 20
188.788547
 30
0.0
 10
18.014874
 20
188.789675
 30
0.0
 10
17.990620
 20
188.789675
 30
0.0
 10
18.004951
 20
189.914156
 30
0.0
 10
17.998336
 20
190.632939
 30
0.0
 10
18.004398
 20
191.109189
 30
0.0
 10
17.634533
 20
191.109189
 30
0.0
 10
17.264667
 20
191.109189
 30
0.0
 10
16.894802
 20
191.109189
 30
0.0
 10
16.524936
 20
191.109189
 30
0.0
 10
16.155071
 20
191.109189
 30
0.0
 10
15.785205
 20
191.109189
 30
0.0
 10
15.415340
 20
191.109189
 30
0.0
 10
15.045474
 20
191.109189
 30
0.0
 10
14.675609
 20
191.109189
 30
0.0
 10
14.305743
 20
191.109189
 30
0.0
 10
13.935878
 20
191.109189
 30
0.0
 10
13.566012
 20
191.109189
 30
0.0
 10
13.196147
 20
191.109189
 30
0.0
 10
12.825731
 20
191.109189
 30
0.0
 10
12.455865
 20
191.109189
 30
0.0
 10
12.086000
 20
191.109189
 30
0.0
 10
11.716134
 20
191.109189
 30
0.0
 10
11.346269
 20
191.109189
 30
0.0
 10
10.976403
 20
191.109189
 30
0.0
 10
10.606538
 20
191.109189
 30
0.0
 10
10.236672
 20
191.109189
 30
0.0
 10
9.866807
 20
191.109189
 30
0.0
 10
9.496941
 20
191.109189
 30
0.0
 10
9.127076
 20
191.109189
 30
0.0
 10
8.757210
 20
191.109189
 30
0.0
 10
8.387345
 20
191.109189
 30
0.0
 10
8.017480
 20
191.109189
 30
0.0
 10
7.647614
 20
191.109189
 30
0.0
 10
7.277749
 20
191.109189
 30
0.0
 10
6.907883
 20
191.109189
 30
0.0
 10
6.538018
 20
191.109189
 30
0.0
 10
6.183586
 20
191.109189
 30
0.0
 10
6.183664
 20
191.112576
 30
0.0
  0
LWPOLYLINE
  5
176
100
AcDbEntity
  8
Layer_1
 62
7
100
AcDbPolyline
 90
434
 70
1
 10
96.217644
 20
190.865251
 30
0.0
 10
96.217644
 20
190.841008
 30
0.0
 10
96.204972
 20
190.841008
 30
0.0
 10
96.204972
 20
184.963400
 30
0.0
 10
93.884355
 20
184.946861
 30
0.0
 10
93.884355
 20
184.576998
 30
0.0
 10
93.884355
 20
184.207132
 30
0.0
 10
93.884355
 20
183.837265
 30
0.0
 10
93.884355
 20
183.467402
 30
0.0
 10
93.884355
 20
183.097535
 30
0.0
 10
93.884355
 20
182.727669
 30
0.0
 10
93.884355
 20
182.357806
 30
0.0
 10
93.884355
 20
181.987939
 30
0.0
 10
93.884355
 20
181.618073
 30
0.0
 10
93.884355
 20
181.248209
 30
0.0
 10
93.884355
 20
180.878343
 30
0.0
 10
93.884355
 20
180.508477
 30
0.0
 10
93.884355
 20
180.138613
 30
0.0
 10
93.884355
 20
179.768747
 30
0.0
 10
93.884355
 20
179.398881
 30
0.0
 10
93.884355
 20
179.029014
 30
0.0
 10
93.884355
 20
178.659151
 30
0.0
 10
93.884355
 20
178.289284
 30
0.0
 10
93.884355
 20
177.919418
 30
0.0
 10
93.884355
 20
177.549555
 30
0.0
 10
93.884355
 20
177.179688
 30
0.0
 10
93.884355
 20
176.809822
 30
0.0
 10
93.884355
 20
176.439958
 30
0.0
 10
93.884355
 20
176.070092
 30
0.0
 10
93.884355
 20
175.700226
 30
0.0
 10
93.884355
 20
175.330362
 30
0.0
 10
93.884355
 20
174.960496
 30
0.0
 10
93.884355
 20
174.590629
 30
0.0
 10
93.884355
 20
174.220763
 30
0.0
 10
93.884355
 20
173.850346
 30
0.0
 10
93.884355
 20
173.480483
 30
0.0
 10
93.884355
 20
173.111720
 30
0.0
 10
96.191745
 20
173.140933
 30
0.0
 10
96.191745
 20
173.090223
 30
0.0
 10
96.204981
 20
173.090223
 30
0.0
 10
96.204981
 20
149.434266
 30
0.0
 10
93.884363
 20
149.438669
 30
0.0
 10
93.884363
 20
149.068803
 30
0.0
 10
93.884363
 20
148.698936
 30
0.0
 10
93.884363
 20
148.329073
 30
0.0
 10
93.884363
 20
147.959206
 30
0.0
 10
93.884363
 20
147.589340
 30
0.0
 10
93.884363
 20
147.219477
 30
0.0
 10
93.884363
 20
146.849610
 30
0.0
 10
93.884363
 20
146.479744
 30
0.0
 10
93.884363
 20
146.109327
 30
0.0
 10
93.884363
 20
145.739464
 30
0.0
 10
93.884363
 20
145.369597
 30
0.0
 10
93.884363
 20
144.999731
 30
0.0
 10
93.884363
 20
144.629868
 30
0.0
 10
93.884363
 20
144.260001
 30
0.0
 10
93.884363
 20
143.890135
 30
0.0
 10
93.884363
 20
143.520271
 30
0.0
 10
93.884363
 20
143.150405
 30
0.0
 10
93.884363
 20
142.780539
 30
0.0
 10
93.884363
 20
142.410672
 30
0.0
 10
93.884363
 20
142.040809
 30
0.0
 10
93.884363
 20
141.670943
 30
0.0
 10
93.884363
 20
141.301076
 30
0.0
 10
93.884363
 20
140.931213
 30
0.0
 10
93.884363
 20
140.561346
 30
0.0
 10
93.884363
 20
140.191480
 30
0.0
 10
93.884363
 20
139.821617
 30
0.0
 10
93.884363
 20
139.451750
 30
0.0
 10
93.884363
 20
139.081884
 30
0.0
 10
93.884363
 20
138.712020
 30
0.0
 10
93.884363
 20
138.342154
 30
0.0
 10
93.884363
 20
137.972288
 30
0.0
 10
93.884363
 20
137.602975
 30
0.0
 10
96.191753
 20
137.607377
 30
0.0
 10
96.191753
 20
129.570659
 30
0.0
 10
96.204989
 20
120.397881
 30
0.0
 10
96.204989
 20
113.900702
 30
0.0
 10
93.884372
 20
113.929912
 30
0.0
 10
93.884372
 20
113.560060
 30
0.0
 10
93.884372
 20
113.190179
 30
0.0
 10
93.884372
 20
112.820327
 30
0.0
 10
93.884372
 20
112.450475
 30
0.0
 10
93.884372
 20
112.080594
 30
0.0
 10
93.884372
 20
111.710742
 30
0.0
 10
93.884372
 20
111.340862
 30
0.0
 10
93.884372
 20
110.971010
 30
0.0
 10
93.884372
 20
110.601129
 30
0.0
 10
93.884372
 20
110.231277
 30
0.0
 10
93.884372
 20
109.861396
 30
0.0
 10
93.884372
 20
109.491544
 30
0.0
 10
93.884372
 20
109.121664
 30
0.0
 10
93.884372
 20
108.751812
 30
0.0
 10
93.884372
 20
108.381931
 30
0.0
 10
93.884372
 20
108.012079
 30
0.0
 10
93.884372
 20
107.642198
 30
0.0
 10
93.884372
 20
107.272346
 30
0.0
 10
93.884372
 20
106.902466
 30
0.0
 10
93.884372
 20
106.532614
 30
0.0
 10
93.884372
 20
106.162733
 30
0.0
 10
93.884372
 20
105.792881
 30
0.0
 10
93.884372
 20
105.423000
 30
0.0
 10
93.884372
 20
105.053148
 30
0.0
 10
93.884372
 20
104.683268
 30
0.0
 10
93.884372
 20
104.312851
 30
0.0
 10
93.884372
 20
103.942999
 30
0.0
 10
93.884372
 20
103.573147
 30
0.0
 10
93.884372
 20
103.203266
 30
0.0
 10
93.884372
 20
102.833414
 30
0.0
 10
93.884372
 20
102.463534
 30
0.0
 10
93.884372
 20
102.094782
 30
0.0
 10
96.191761
 20
102.078131
 30
0.0
 10
96.191761
 20
102.069946
 30
0.0
 10
96.204998
 20
102.069946
 30
0.0
 10
96.204998
 20
96.176356
 30
0.0
 10
96.664159
 20
96.176356
 30
0.0
 10
97.013079
 20
96.176356
 30
0.0
 10
97.362549
 20
96.176356
 30
0.0
 10
97.711469
 20
96.176356
 30
0.0
 10
98.060389
 20
96.176356
 30
0.0
 10
98.409859
 20
96.176356
 30
0.0
 10
98.758779
 20
96.176356
 30
0.0
 10
99.107698
 20
96.176356
 30
0.0
 10
99.457169
 20
96.176356
 30
0.0
 10
99.806088
 20
96.176356
 30
0.0
 10
100.155558
 20
96.176356
 30
0.0
 10
100.504478
 20
96.176356
 30
0.0
 10
100.853395
 20
96.176356
 30
0.0
 10
101.202868
 20
96.176356
 30
0.0
 10
101.551785
 20
96.176356
 30
0.0
 10
101.901255
 20
96.176356
 30
0.0
 10
102.250175
 20
96.176356
 30
0.0
 10
102.599095
 20
96.176356
 30
0.0
 10
102.948565
 20
96.176356
 30
0.0
 10
103.297485
 20
96.176356
 30
0.0
 10
103.646955
 20
96.176356
 30
0.0
 10
103.995875
 20
96.176356
 30
0.0
 10
104.344795
 20
96.176356
 30
0.0
 10
104.694265
 20
96.176356
 30
0.0
 10
105.043184
 20
96.176356
 30
0.0
 10
105.392655
 20
96.176356
 30
0.0
 10
105.741574
 20
96.176356
 30
0.0
 10
106.090491
 20
96.176356
 30
0.0
 10
106.439964
 20
96.176356
 30
0.0
 10
106.788881
 20
96.176356
 30
0.0
 10
107.137801
 20
96.176356
 30
0.0
 10
107.487271
 20
96.176356
 30
0.0
 10
107.836191
 20
96.176356
 30
0.0
 10
108.185661
 20
96.176356
 30
0.0
 10
108.534581
 20
96.176356
 30
0.0
 10
108.883501
 20
96.176356
 30
0.0
 10
109.232971
 20
96.176356
 30
0.0
 10
109.581891
 20
96.176356
 30
0.0
 10
109.931361
 20
96.176356
 30
0.0
 10
110.280281
 20
96.176356
 30
0.0
 10
110.629200
 20
96.176356
 30
0.0
 10
110.978671
 20
96.176356
 30
0.0
 10
111.327590
 20
96.176356
 30
0.0
 10
111.677061
 20
96.176356
 30
0.0
 10
112.025978
 20
96.176356
 30
0.0
 10
112.374897
 20
96.176356
 30
0.0
 10
112.724367
 20
96.176356
 30
0.0
 10
113.073287
 20
96.176356
 30
0.0
 10
113.422757
 20
96.176356
 30
0.0
 10
113.661436
 20
96.176356
 30
0.0
 10
113.661436
 20
98.651868
 30
0.0
 10
121.343172
 20
98.651868
 30
0.0
 10
121.342607
 20
96.176356
 30
0.0
 10
121.452852
 20
96.176356
 30
0.0
 10
121.801771
 20
96.176356
 30
0.0
 10
122.150688
 20
96.176356
 30
0.0
 10
122.500161
 20
96.176356
 30
0.0
 10
122.849078
 20
96.176356
 30
0.0
 10
123.197998
 20
96.176356
 30
0.0
 10
123.547468
 20
96.176356
 30
0.0
 10
123.896388
 20
96.176356
 30
0.0
 10
124.245858
 20
96.176356
 30
0.0
 10
124.594778
 20
96.176356
 30
0.0
 10
124.943698
 20
96.176356
 30
0.0
 10
125.293168
 20
96.176356
 30
0.0
 10
125.642088
 20
96.176356
 30
0.0
 10
125.991558
 20
96.176356
 30
0.0
 10
126.340478
 20
96.176356
 30
0.0
 10
126.689398
 20
96.176356
 30
0.0
 10
127.038868
 20
96.176356
 30
0.0
 10
127.387785
 20
96.176356
 30
0.0
 10
127.737258
 20
96.176356
 30
0.0
 10
128.086175
 20
96.176356
 30
0.0
 10
128.435094
 20
96.176356
 30
0.0
 10
128.784564
 20
96.176356
 30
0.0
 10
129.133484
 20
96.176356
 30
0.0
 10
129.482954
 20
96.176356
 30
0.0
 10
129.831874
 20
96.176356
 30
0.0
 10
130.180794
 20
96.176356
 30
0.0
 10
130.530264
 20
96.176356
 30
0.0
 10
130.879184
 20
96.176356
 30
0.0
 10
131.228654
 20
96.176356
 30
0.0
 10
131.577574
 20
96.176356
 30
0.0
 10
131.926494
 20
96.176356
 30
0.0
 10
132.275964
 20
96.176356
 30
0.0
 10
132.624884
 20
96.176356
 30
0.0
 10
132.973801
 20
96.176356
 30
0.0
 10
133.323274
 20
96.176356
 30
0.0
 10
133.672191
 20
96.176356
 30
0.0
 10
134.021661
 20
96.176356
 30
0.0
 10
134.370580
 20
96.176356
 30
0.0
 10
134.719500
 20
96.176356
 30
0.0
 10
135.068970
 20
96.176356
 30
0.0
 10
135.417890
 20
96.176356
 30
0.0
 10
135.767360
 20
96.176356
 30
0.0
 10
136.116280
 20
96.176356
 30
0.0
 10
136.465200
 20
96.176356
 30
0.0
 10
136.814670
 20
96.176356
 30
0.0
 10
137.163590
 20
96.176356
 30
0.0
 10
137.513060
 20
96.176356
 30
0.0
 10
137.861980
 20
96.176356
 30
0.0
 10
138.210897
 20
96.176356
 30
0.0
 10
138.560370
 20
96.176356
 30
0.0
 10
138.560370
 20
102.102458
 30
0.0
 10
140.880984
 20
102.118545
 30
0.0
 10
140.880984
 20
102.488397
 30
0.0
 10
140.880984
 20
102.858278
 30
0.0
 10
140.880984
 20
103.228130
 30
0.0
 10
140.880984
 20
103.597982
 30
0.0
 10
140.880984
 20
103.967863
 30
0.0
 10
140.880984
 20
104.337715
 30
0.0
 10
140.880984
 20
104.707595
 30
0.0
 10
140.880984
 20
105.077448
 30
0.0
 10
140.880984
 20
105.447328
 30
0.0
 10
140.880984
 20
105.817180
 30
0.0
 10
140.880984
 20
106.187061
 30
0.0
 10
140.880984
 20
106.556913
 30
0.0
 10
140.880984
 20
106.926793
 30
0.0
 10
140.880984
 20
107.296646
 30
0.0
 10
140.880984
 20
107.666526
 30
0.0
 10
140.880984
 20
108.036378
 30
0.0
 10
140.880984
 20
108.406259
 30
0.0
 10
140.880984
 20
108.776675
 30
0.0
 10
140.880984
 20
109.146528
 30
0.0
 10
140.880984
 20
109.516380
 30
0.0
 10
140.880984
 20
109.886260
 30
0.0
 10
140.880984
 20
110.256112
 30
0.0
 10
140.880984
 20
110.625993
 30
0.0
 10
140.880984
 20
110.995873
 30
0.0
 10
140.880984
 20
111.365726
 30
0.0
 10
140.880984
 20
111.735606
 30
0.0
 10
140.880984
 20
112.105458
 30
0.0
 10
140.880984
 20
112.475310
 30
0.0
 10
140.880984
 20
112.845191
 30
0.0
 10
140.880984
 20
113.215043
 30
0.0
 10
140.880984
 20
113.584924
 30
0.0
 10
140.880984
 20
113.906290
 30
0.0
 10
138.573597
 20
113.877052
 30
0.0
 10
138.573597
 20
113.975180
 30
0.0
 10
138.560361
 20
113.975180
 30
0.0
 10
138.560361
 20
137.631137
 30
0.0
 10
140.880976
 20
137.627271
 30
0.0
 10
140.880976
 20
137.997135
 30
0.0
 10
140.880976
 20
138.367001
 30
0.0
 10
140.880976
 20
138.736867
 30
0.0
 10
140.880976
 20
139.106731
 30
0.0
 10
140.880976
 20
139.476597
 30
0.0
 10
140.880976
 20
139.846463
 30
0.0
 10
140.880976
 20
140.216327
 30
0.0
 10
140.880976
 20
140.586193
 30
0.0
 10
140.880976
 20
140.956060
 30
0.0
 10
140.880976
 20
141.325923
 30
0.0
 10
140.880976
 20
141.695789
 30
0.0
 10
140.880976
 20
142.065656
 30
0.0
 10
140.880976
 20
142.435519
 30
0.0
 10
140.880976
 20
142.805386
 30
0.0
 10
140.880976
 20
143.175252
 30
0.0
 10
140.880976
 20
143.545118
 30
0.0
 10
140.880976
 20
143.914982
 30
0.0
 10
140.880976
 20
144.284848
 30
0.0
 10
140.880976
 20
144.654714
 30
0.0
 10
140.880976
 20
145.024578
 30
0.0
 10
140.880976
 20
145.394444
 30
0.0
 10
140.880976
 20
145.764311
 30
0.0
 10
140.880976
 20
146.134174
 30
0.0
 10
140.880976
 20
146.504040
 30
0.0
 10
140.880976
 20
146.873907
 30
0.0
 10
140.880976
 20
147.243770
 30
0.0
 10
140.880976
 20
147.613637
 30
0.0
 10
140.880976
 20
147.983503
 30
0.0
 10
140.880976
 20
148.353369
 30
0.0
 10
140.880976
 20
148.723233
 30
0.0
 10
140.880976
 20
149.093099
 30
0.0
 10
140.880976
 20
149.414457
 30
0.0
 10
138.573589
 20
149.410591
 30
0.0
 10
138.573589
 20
157.366833
 30
0.0
 10
138.560353
 20
166.394083
 30
0.0
 10
138.560353
 20
173.164662
 30
0.0
 10
140.880967
 20
173.135447
 30
0.0
 10
140.880967
 20
173.505313
 30
0.0
 10
140.880967
 20
173.875179
 30
0.0
 10
140.880967
 20
174.245043
 30
0.0
 10
140.880967
 20
174.614909
 30
0.0
 10
140.880967
 20
174.984775
 30
0.0
 10
140.880967
 20
175.354639
 30
0.0
 10
140.880967
 20
175.724505
 30
0.0
 10
140.880967
 20
176.094372
 30
0.0
 10
140.880967
 20
176.464235
 30
0.0
 10
140.880967
 20
176.834101
 30
0.0
 10
140.880967
 20
177.203968
 30
0.0
 10
140.880967
 20
177.573831
 30
0.0
 10
140.880967
 20
177.943698
 30
0.0
 10
140.880967
 20
178.314114
 30
0.0
 10
140.880967
 20
178.683981
 30
0.0
 10
140.880967
 20
179.053844
 30
0.0
 10
140.880967
 20
179.423710
 30
0.0
 10
140.880967
 20
179.793577
 30
0.0
 10
140.880967
 20
180.163443
 30
0.0
 10
140.880967
 20
180.533307
 30
0.0
 10
140.880967
 20
180.903173
 30
0.0
 10
140.880967
 20
181.273039
 30
0.0
 10
140.880967
 20
181.642903
 30
0.0
 10
140.880967
 20
182.012769
 30
0.0
 10
140.880967
 20
182.382635
 30
0.0
 10
140.880967
 20
182.752499
 30
0.0
 10
140.880967
 20
183.122365
 30
0.0
 10
140.880967
 20
183.492232
 30
0.0
 10
140.880967
 20
183.862095
 30
0.0
 10
140.880967
 20
184.231961
 30
0.0
 10
140.880967
 20
184.601828
 30
0.0
 10
140.880967
 20
184.923186
 30
0.0
 10
138.573581
 20
184.939160
 30
0.0
 10
138.573581
 20
184.995384
 30
0.0
 10
138.560344
 20
184.995384
 30
0.0
 10
138.560344
 20
190.865276
 30
0.0
 10
138.224102
 20
190.865276
 30
0.0
 10
137.875182
 20
190.865276
 30
0.0
 10
137.526262
 20
190.865276
 30
0.0
 10
137.176792
 20
190.865276
 30
0.0
 10
136.827872
 20
190.865276
 30
0.0
 10
136.478402
 20
190.865276
 30
0.0
 10
136.129482
 20
190.865276
 30
0.0
 10
135.780566
 20
190.865276
 30
0.0
 10
135.431093
 20
190.865276
 30
0.0
 10
135.082176
 20
190.865276
 30
0.0
 10
134.732705
 20
190.865276
 30
0.0
 10
134.383786
 20
190.865276
 30
0.0
 10
134.034866
 20
190.865276
 30
0.0
 10
133.685396
 20
190.865276
 30
0.0
 10
133.336476
 20
190.865276
 30
0.0
 10
132.987006
 20
190.865276
 30
0.0
 10
132.638086
 20
190.865276
 30
0.0
 10
132.289166
 20
190.865276
 30
0.0
 10
131.939696
 20
190.865276
 30
0.0
 10
131.590776
 20
190.865276
 30
0.0
 10
131.241859
 20
190.865276
 30
0.0
 10
130.892386
 20
190.865276
 30
0.0
 10
130.543469
 20
190.865276
 30
0.0
 10
130.193996
 20
190.865276
 30
0.0
 10
129.845079
 20
190.865276
 30
0.0
 10
129.496160
 20
190.865276
 30
0.0
 10
129.146689
 20
190.865276
 30
0.0
 10
128.797770
 20
190.865276
 30
0.0
 10
128.448300
 20
190.865276
 30
0.0
 10
128.099380
 20
190.865276
 30
0.0
 10
127.750460
 20
190.865276
 30
0.0
 10
127.400990
 20
190.865276
 30
0.0
 10
127.052070
 20
190.865276
 30
0.0
 10
126.702600
 20
190.865276
 30
0.0
 10
126.353680
 20
190.865276
 30
0.0
 10
126.004760
 20
190.865276
 30
0.0
 10
125.655290
 20
190.865276
 30
0.0
 10
125.306370
 20
190.865276
 30
0.0
 10
124.956900
 20
190.865276
 30
0.0
 10
124.607983
 20
190.865276
 30
0.0
 10
124.259063
 20
190.865276
 30
0.0
 10
123.909593
 20
190.865276
 30
0.0
 10
123.560673
 20
190.865276
 30
0.0
 10
123.211203
 20
190.865276
 30
0.0
 10
122.862284
 20
190.865276
 30
0.0
 10
122.513364
 20
190.865276
 30
0.0
 10
122.163894
 20
190.865276
 30
0.0
 10
121.814974
 20
190.865276
 30
0.0
 10
121.466054
 20
190.865276
 30
0.0
 10
121.329354
 20
190.865276
 30
0.0
 10
121.329918
 20
188.389767
 30
0.0
 10
113.648182
 20
188.389767
 30
0.0
 10
113.648182
 20
190.865276
 30
0.0
 10
113.435965
 20
190.865276
 30
0.0
 10
113.086495
 20
190.865276
 30
0.0
 10
112.737575
 20
190.865276
 30
0.0
 10
112.388105
 20
190.865276
 30
0.0
 10
112.039186
 20
190.865276
 30
0.0
 10
111.690266
 20
190.865276
 30
0.0
 10
111.340796
 20
190.865276
 30
0.0
 10
110.991876
 20
190.865276
 30
0.0
 10
110.642406
 20
190.865276
 30
0.0
 10
110.293486
 20
190.865276
 30
0.0
 10
109.944566
 20
190.865276
 30
0.0
 10
109.595096
 20
190.865276
 30
0.0
 10
109.246179
 20
190.865276
 30
0.0
 10
108.896706
 20
190.865276
 30
0.0
 10
108.547789
 20
190.865276
 30
0.0
 10
108.198869
 20
190.865276
 30
0.0
 10
107.849399
 20
190.865276
 30
0.0
 10
107.500479
 20
190.865276
 30
0.0
 10
107.151009
 20
190.865276
 30
0.0
 10
106.802089
 20
190.865276
 30
0.0
 10
106.453170
 20
190.865276
 30
0.0
 10
106.103699
 20
190.865276
 30
0.0
 10
105.754780
 20
190.865276
 30
0.0
 10
105.405860
 20
190.865276
 30
0.0
 10
105.056390
 20
190.865276
 30
0.0
 10
104.707470
 20
190.865276
 30
0.0
 10
104.358000
 20
190.865276
 30
0.0
 10
104.009080
 20
190.865276
 30
0.0
 10
103.660163
 20
190.865276
 30
0.0
 10
103.310690
 20
190.865276
 30
0.0
 10
102.961773
 20
190.865276
 30
0.0
 10
102.612303
 20
190.865276
 30
0.0
 10
102.263383
 20
190.865276
 30
0.0
 10
101.914463
 20
190.865276
 30
0.0
 10
101.564993
 20
190.865276
 30
0.0
 10
101.216073
 20
190.865276
 30
0.0
 10
100.866603
 20
190.865276
 30
0.0
 10
100.517683
 20
190.865276
 30
0.0
 10
100.168764
 20
190.865276
 30
0.0
 10
99.819293
 20
190.865276
 30
0.0
 10
99.470374
 20
190.865276
 30
0.0
 10
99.120904
 20
190.865276
 30
0.0
 10
98.771984
 20
190.865276
 30
0.0
 10
98.423067
 20
190.865276
 30
0.0
 10
98.073594
 20
190.865276
 30
0.0
 10
97.724677
 20
190.865276
 30
0.0
 10
97.375757
 20
190.865276
 30
0.0
 10
97.026287
 20
190.865276
 30
0.0
 10
96.677367
 20
190.865276
 30
0.0
 10
96.217653
 20
190.865276
 30
0.0
 10
96.217644
 20
190.865251
 30
0.0
  0
LWPOLYLINE
  5
177
100
AcDbEntity
  8
Layer_1
 62
7
100
AcDbPolyline
 90
434
 70
1
 10
146.217646
 20
190.865251
 30
0.0
 10
146.217646
 20
190.841008
 30
0.0
 10
146.204974
 20
190.841008
 30
0.0
 10
146.204974
 20
184.963400
 30
0.0
 10
143.884356
 20
184.946861
 30
0.0
 10
143.884356
 20
184.576998
 30
0.0
 10
143.884356
 20
184.207132
 30
0.0
 10
143.884356
 20
183.837265
 30
0.0
 10
143.884356
 20
183.467402
 30
0.0
 10
143.884356
 20
183.097535
 30
0.0
 10
143.884356
 20
182.727669
 30
0.0
 10
143.884356
 20
182.357806
 30
0.0
 10
143.884356
 20
181.987939
 30
0.0
 10
143.884356
 20
181.618073
 30
0.0
 10
143.884356
 20
181.248209
 30
0.0
 10
143.884356
 20
180.878343
 30
0.0
 10
143.884356
 20
180.508477
 30
0.0
 10
143.884356
 20
180.138613
 30
0.0
 10
143.884356
 20
179.768747
 30
0.0
 10
143.884356
 20
179.398881
 30
0.0
 10
143.884356
 20
179.029014
 30
0.0
 10
143.884356
 20
178.659151
 30
0.0
 10
143.884356
 20
178.289284
 30
0.0
 10
143.884356
 20
177.919418
 30
0.0
 10
143.884356
 20
177.549555
 30
0.0
 10
143.884356
 20
177.179688
 30
0.0
 10
143.884356
 20
176.809822
 30
0.0
 10
143.884356
 20
176.439958
 30
0.0
 10
143.884356
 20
176.070092
 30
0.0
 10
143.884356
 20
175.700226
 30
0.0
 10
143.884356
 20
175.330362
 30
0.0
 10
143.884356
 20
174.960496
 30
0.0
 10
143.884356
 20
174.590629
 30
0.0
 10
143.884356
 20
174.220763
 30
0.0
 10
143.884356
 20
173.850346
 30
0.0
 10
143.884356
 20
173.480483
 30
0.0
 10
143.884356
 20
173.111720
 30
0.0
 10
146.191746
 20
173.140933
 30
0.0
 10
146.191746
 20
173.090223
 30
0.0
 10
146.204982
 20
173.090223
 30
0.0
 10
146.204982
 20
149.434269
 30
0.0
 10
143.884365
 20
149.438672
 30
0.0
 10
143.884365
 20
149.068805
 30
0.0
 10
143.884365
 20
148.698939
 30
0.0
 10
143.884365
 20
148.329076
 30
0.0
 10
143.884365
 20
147.959209
 30
0.0
 10
143.884365
 20
147.589343
 30
0.0
 10
143.884365
 20
147.219479
 30
0.0
 10
143.884365
 20
146.849613
 30
0.0
 10
143.884365
 20
146.479747
 30
0.0
 10
143.884365
 20
146.109330
 30
0.0
 10
143.884365
 20
145.739467
 30
0.0
 10
143.884365
 20
145.369600
 30
0.0
 10
143.884365
 20
144.999734
 30
0.0
 10
143.884365
 20
144.629870
 30
0.0
 10
143.884365
 20
144.260004
 30
0.0
 10
143.884365
 20
143.890138
 30
0.0
 10
143.884365
 20
143.520274
 30
0.0
 10
143.884365
 20
143.150408
 30
0.0
 10
143.884365
 20
142.780542
 30
0.0
 10
143.884365
 20
142.410675
 30
0.0
 10
143.884365
 20
142.040812
 30
0.0
 10
143.884365
 20
141.670945
 30
0.0
 10
143.884365
 20
141.301079
 30
0.0
 10
143.884365
 20
140.931216
 30
0.0
 10
143.884365
 20
140.561349
 30
0.0
 10
143.884365
 20
140.191483
 30
0.0
 10
143.884365
 20
139.821619
 30
0.0
 10
143.884365
 20
139.451753
 30
0.0
 10
143.884365
 20
139.081887
 30
0.0
 10
143.884365
 20
138.712023
 30
0.0
 10
143.884365
 20
138.342157
 30
0.0
 10
143.884365
 20
137.972291
 30
0.0
 10
143.884365
 20
137.602977
 30
0.0
 10
146.191755
 20
137.607380
 30
0.0
 10
146.191755
 20
129.570662
 30
0.0
 10
146.204991
 20
120.397889
 30
0.0
 10
146.204991
 20
113.900705
 30
0.0
 10
143.884373
 20
113.929915
 30
0.0
 10
143.884373
 20
113.560063
 30
0.0
 10
143.884373
 20
113.190182
 30
0.0
 10
143.884373
 20
112.820330
 30
0.0
 10
143.884373
 20
112.450478
 30
0.0
 10
143.884373
 20
112.080597
 30
0.0
 10
143.884373
 20
111.710745
 30
0.0
 10
143.884373
 20
111.340865
 30
0.0
 10
143.884373
 20
110.971012
 30
0.0
 10
143.884373
 20
110.601129
 30
0.0
 10
143.884373
 20
110.231277
 30
0.0
 10
143.884373
 20
109.861396
 30
0.0
 10
143.884373
 20
109.491544
 30
0.0
 10
143.884373
 20
109.121664
 30
0.0
 10
143.884373
 20
108.751812
 30
0.0
 10
143.884373
 20
108.381931
 30
0.0
 10
143.884373
 20
108.012079
 30
0.0
 10
143.884373
 20
107.642198
 30
0.0
 10
143.884373
 20
107.272346
 30
0.0
 10
143.884373
 20
106.902466
 30
0.0
 10
143.884373
 20
106.532614
 30
0.0
 10
143.884373
 20
106.162733
 30
0.0
 10
143.884373
 20
105.792881
 30
0.0
 10
143.884373
 20
105.423000
 30
0.0
 10
143.884373
 20
105.053148
 30
0.0
 10
143.884373
 20
104.683268
 30
0.0
 10
143.884373
 20
104.312851
 30
0.0
 10
143.884373
 20
103.942999
 30
0.0
 10
143.884373
 20
103.573147
 30
0.0
 10
143.884373
 20
103.203266
 30
0.0
 10
143.884373
 20
102.833414
 30
0.0
 10
143.884373
 20
102.463534
 30
0.0
 10
143.884373
 20
102.094782
 30
0.0
 10
146.191763
 20
102.078131
 30
0.0
 10
146.191763
 20
102.069946
 30
0.0
 10
146.204999
 20
102.069946
 30
0.0
 10
146.204999
 20
96.176356
 30
0.0
 10
146.664161
 20
96.176356
 30
0.0
 10
147.013081
 20
96.176356
 30
0.0
 10
147.362551
 20
96.176356
 30
0.0
 10
147.711470
 20
96.176356
 30
0.0
 10
148.060390
 20
96.176356
 30
0.0
 10
148.409860
 20
96.176356
 30
0.0
 10
148.758780
 20
96.176356
 30
0.0
 10
149.107700
 20
96.176356
 30
0.0
 10
149.457170
 20
96.176356
 30
0.0
 10
149.806090
 20
96.176356
 30
0.0
 10
150.155560
 20
96.176356
 30
0.0
 10
150.504480
 20
96.176356
 30
0.0
 10
150.853397
 20
96.176356
 30
0.0
 10
151.202870
 20
96.176356
 30
0.0
 10
151.551787
 20
96.176356
 30
0.0
 10
151.901257
 20
96.176356
 30
0.0
 10
152.250177
 20
96.176356
 30
0.0
 10
152.599096
 20
96.176356
 30
0.0
 10
152.948567
 20
96.176356
 30
0.0
 10
153.297486
 20
96.176356
 30
0.0
 10
153.646957
 20
96.176356
 30
0.0
 10
153.995876
 20
96.176356
 30
0.0
 10
154.344796
 20
96.176356
 30
0.0
 10
154.694266
 20
96.176356
 30
0.0
 10
155.043186
 20
96.176356
 30
0.0
 10
155.392656
 20
96.176356
 30
0.0
 10
155.741576
 20
96.176356
 30
0.0
 10
156.090493
 20
96.176356
 30
0.0
 10
156.439966
 20
96.176356
 30
0.0
 10
156.788883
 20
96.176356
 30
0.0
 10
157.137803
 20
96.176356
 30
0.0
 10
157.487273
 20
96.176356
 30
0.0
 10
157.836193
 20
96.176356
 30
0.0
 10
158.185663
 20
96.176356
 30
0.0
 10
158.534583
 20
96.176356
 30
0.0
 10
158.883502
 20
96.176356
 30
0.0
 10
159.232973
 20
96.176356
 30
0.0
 10
159.581892
 20
96.176356
 30
0.0
 10
159.931362
 20
96.176356
 30
0.0
 10
160.280282
 20
96.176356
 30
0.0
 10
160.629202
 20
96.176356
 30
0.0
 10
160.978672
 20
96.176356
 30
0.0
 10
161.327592
 20
96.176356
 30
0.0
 10
161.677062
 20
96.176356
 30
0.0
 10
162.025979
 20
96.176356
 30
0.0
 10
162.374899
 20
96.176356
 30
0.0
 10
162.724369
 20
96.176356
 30
0.0
 10
163.073289
 20
96.176356
 30
0.0
 10
163.422759
 20
96.176356
 30
0.0
 10
163.661437
 20
96.176356
 30
0.0
 10
163.661437
 20
98.651868
 30
0.0
 10
171.343173
 20
98.651868
 30
0.0
 10
171.342609
 20
96.176356
 30
0.0
 10
171.452853
 20
96.176356
 30
0.0
 10
171.801773
 20
96.176356
 30
0.0
 10
172.150687
 20
96.176356
 30
0.0
 10
172.500160
 20
96.176356
 30
0.0
 10
172.849077
 20
96.176356
 30
0.0
 10
173.197997
 20
96.176356
 30
0.0
 10
173.547467
 20
96.176356
 30
0.0
 10
173.896387
 20
96.176356
 30
0.0
 10
174.245857
 20
96.176356
 30
0.0
 10
174.594777
 20
96.176356
 30
0.0
 10
174.943697
 20
96.176356
 30
0.0
 10
175.293167
 20
96.176356
 30
0.0
 10
175.642087
 20
96.176356
 30
0.0
 10
175.991557
 20
96.176356
 30
0.0
 10
176.340476
 20
96.176356
 30
0.0
 10
176.689396
 20
96.176356
 30
0.0
 10
177.038866
 20
96.176356
 30
0.0
 10
177.387783
 20
96.176356
 30
0.0
 10
177.737256
 20
96.176356
 30
0.0
 10
178.086173
 20
96.176356
 30
0.0
 10
178.435093
 20
96.176356
 30
0.0
 10
178.784563
 20
96.176356
 30
0.0
 10
179.133483
 20
96.176356
 30
0.0
 10
179.482953
 20
96.176356
 30
0.0
 10
179.831873
 20
96.176356
 30
0.0
 10
180.180793
 20
96.176356
 30
0.0
 10
180.530263
 20
96.176356
 30
0.0
 10
180.879183
 20
96.176356
 30
0.0
 10
181.228653
 20
96.176356
 30
0.0
 10
181.577573
 20
96.176356
 30
0.0
 10
181.926492
 20
96.176356
 30
0.0
 10
182.275963
 20
96.176356
 30
0.0
 10
182.624882
 20
96.176356
 30
0.0
 10
182.973799
 20
96.176356
 30
0.0
 10
183.323272
 20
96.176356
 30
0.0
 10
183.672189
 20
96.176356
 30
0.0
 10
184.021659
 20
96.176356
 30
0.0
 10
184.370579
 20
96.176356
 30
0.0
 10
184.719499
 20
96.176356
 30
0.0
 10
185.068969
 20
96.176356
 30
0.0
 10
185.417889
 20
96.176356
 30
0.0
 10
185.767359
 20
96.176356
 30
0.0
 10
186.116279
 20
96.176356
 30
0.0
 10
186.465199
 20
96.176356
 30
0.0
 10
186.814669
 20
96.176356
 30
0.0
 10
187.163589
 20
96.176356
 30
0.0
 10
187.513059
 20
96.176356
 30
0.0
 10
187.861979
 20
96.176356
 30
0.0
 10
188.210896
 20
96.176356
 30
0.0
 10
188.560369
 20
96.176356
 30
0.0
 10
188.560369
 20
102.102458
 30
0.0
 10
190.880983
 20
102.118545
 30
0.0
 10
190.880983
 20
102.488397
 30
0.0
 10
190.880983
 20
102.858278
 30
0.0
 10
190.880983
 20
103.228130
 30
0.0
 10
190.880983
 20
103.597982
 30
0.0
 10
190.880983
 20
103.967863
 30
0.0
 10
190.880983
 20
104.337715
 30
0.0
 10
190.880983
 20
104.707595
 30
0.0
 10
190.880983
 20
105.077448
 30
0.0
 10
190.880983
 20
105.447328
 30
0.0
 10
190.880983
 20
105.817180
 30
0.0
 10
190.880983
 20
106.187061
 30
0.0
 10
190.880983
 20
106.556913
 30
0.0
 10
190.880983
 20
106.926793
 30
0.0
 10
190.880983
 20
107.296646
 30
0.0
 10
190.880983
 20
107.666526
 30
0.0
 10
190.880983
 20
108.036378
 30
0.0
 10
190.880983
 20
108.406259
 30
0.0
 10
190.880983
 20
108.776675
 30
0.0
 10
190.880983
 20
109.146528
 30
0.0
 10
190.880983
 20
109.516380
 30
0.0
 10
190.880983
 20
109.886260
 30
0.0
 10
190.880983
 20
110.256112
 30
0.0
 10
190.880983
 20
110.625993
 30
0.0
 10
190.880983
 20
110.995876
 30
0.0
 10
190.880983
 20
111.365728
 30
0.0
 10
190.880983
 20
111.735609
 30
0.0
 10
190.880983
 20
112.105461
 30
0.0
 10
190.880983
 20
112.475313
 30
0.0
 10
190.880983
 20
112.845194
 30
0.0
 10
190.880983
 20
113.215046
 30
0.0
 10
190.880983
 20
113.584926
 30
0.0
 10
190.880983
 20
113.906293
 30
0.0
 10
188.573596
 20
113.877055
 30
0.0
 10
188.573596
 20
113.975183
 30
0.0
 10
188.560360
 20
113.975183
 30
0.0
 10
188.560360
 20
137.631140
 30
0.0
 10
190.880975
 20
137.627274
 30
0.0
 10
190.880975
 20
137.997137
 30
0.0
 10
190.880975
 20
138.367004
 30
0.0
 10
190.880975
 20
138.736870
 30
0.0
 10
190.880975
 20
139.106734
 30
0.0
 10
190.880975
 20
139.476600
 30
0.0
 10
190.880975
 20
139.846466
 30
0.0
 10
190.880975
 20
140.216330
 30
0.0
 10
190.880975
 20
140.586196
 30
0.0
 10
190.880975
 20
140.956062
 30
0.0
 10
190.880975
 20
141.325926
 30
0.0
 10
190.880975
 20
141.695792
 30
0.0
 10
190.880975
 20
142.065659
 30
0.0
 10
190.880975
 20
142.435522
 30
0.0
 10
190.880975
 20
142.805388
 30
0.0
 10
190.880975
 20
143.175255
 30
0.0
 10
190.880975
 20
143.545121
 30
0.0
 10
190.880975
 20
143.914985
 30
0.0
 10
190.880975
 20
144.284851
 30
0.0
 10
190.880975
 20
144.654717
 30
0.0
 10
190.880975
 20
145.024581
 30
0.0
 10
190.880975
 20
145.394447
 30
0.0
 10
190.880975
 20
145.764313
 30
0.0
 10
190.880975
 20
146.134177
 30
0.0
 10
190.880975
 20
146.504043
 30
0.0
 10
190.880975
 20
146.873910
 30
0.0
 10
190.880975
 20
147.243773
 30
0.0
 10
190.880975
 20
147.613639
 30
0.0
 10
190.880975
 20
147.983506
 30
0.0
 10
190.880975
 20
148.353372
 30
0.0
 10
190.880975
 20
148.723236
 30
0.0
 10
190.880975
 20
149.093102
 30
0.0
 10
190.880975
 20
149.414460
 30
0.0
 10
188.573588
 20
149.410593
 30
0.0
 10
188.573588
 20
157.366836
 30
0.0
 10
188.560352
 20
166.394083
 30
0.0
 10
188.560352
 20
173.164662
 30
0.0
 10
190.880966
 20
173.135447
 30
0.0
 10
190.880966
 20
173.505313
 30
0.0
 10
190.880966
 20
173.875179
 30
0.0
 10
190.880966
 20
174.245043
 30
0.0
 10
190.880966
 20
174.614909
 30
0.0
 10
190.880966
 20
174.984775
 30
0.0
 10
190.880966
 20
175.354639
 30
0.0
 10
190.880966
 20
175.724505
 30
0.0
 10
190.880966
 20
176.094372
 30
0.0
 10
190.880966
 20
176.464235
 30
0.0
 10
190.880966
 20
176.834101
 30
0.0
 10
190.880966
 20
177.203968
 30
0.0
 10
190.880966
 20
177.573831
 30
0.0
 10
190.880966
 20
177.943698
 30
0.0
 10
190.880966
 20
178.314114
 30
0.0
 10
190.880966
 20
178.683981
 30
0.0
 10
190.880966
 20
179.053844
 30
0.0
 10
190.880966
 20
179.423710
 30
0.0
 10
190.880966
 20
179.793577
 30
0.0
 10
190.880966
 20
180.163443
 30
0.0
 10
190.880966
 20
180.533307
 30
0.0
 10
190.880966
 20
180.903173
 30
0.0
 10
190.880966
 20
181.273039
 30
0.0
 10
190.880966
 20
181.642903
 30
0.0
 10
190.880966
 20
182.012769
 30
0.0
 10
190.880966
 20
182.382635
 30
0.0
 10
190.880966
 20
182.752499
 30
0.0
 10
190.880966
 20
183.122365
 30
0.0
 10
190.880966
 20
183.492232
 30
0.0
 10
190.880966
 20
183.862095
 30
0.0
 10
190.880966
 20
184.231961
 30
0.0
 10
190.880966
 20
184.601828
 30
0.0
 10
190.880966
 20
184.923186
 30
0.0
 10
188.573579
 20
184.939160
 30
0.0
 10
188.573579
 20
184.995384
 30
0.0
 10
188.560343
 20
184.995384
 30
0.0
 10
188.560343
 20
190.865276
 30
0.0
 10
188.224101
 20
190.865276
 30
0.0
 10
187.875181
 20
190.865276
 30
0.0
 10
187.526261
 20
190.865276
 30
0.0
 10
187.176791
 20
190.865276
 30
0.0
 10
186.827871
 20
190.865276
 30
0.0
 10
186.478401
 20
190.865276
 30
0.0
 10
186.129481
 20
190.865276
 30
0.0
 10
185.780564
 20
190.865276
 30
0.0
 10
185.431091
 20
190.865276
 30
0.0
 10
185.082174
 20
190.865276
 30
0.0
 10
184.732704
 20
190.865276
 30
0.0
 10
184.383784
 20
190.865276
 30
0.0
 10
184.034865
 20
190.865276
 30
0.0
 10
183.685394
 20
190.865276
 30
0.0
 10
183.336475
 20
190.865276
 30
0.0
 10
182.987005
 20
190.865276
 30
0.0
 10
182.638085
 20
190.865276
 30
0.0
 10
182.289165
 20
190.865276
 30
0.0
 10
181.939695
 20
190.865276
 30
0.0
 10
181.590775
 20
190.865276
 30
0.0
 10
181.241858
 20
190.865276
 30
0.0
 10
180.892385
 20
190.865276
 30
0.0
 10
180.543468
 20
190.865276
 30
0.0
 10
180.193995
 20
190.865276
 30
0.0
 10
179.845078
 20
190.865276
 30
0.0
 10
179.496158
 20
190.865276
 30
0.0
 10
179.146688
 20
190.865276
 30
0.0
 10
178.797768
 20
190.865276
 30
0.0
 10
178.448298
 20
190.865276
 30
0.0
 10
178.099379
 20
190.865276
 30
0.0
 10
177.750459
 20
190.865276
 30
0.0
 10
177.400989
 20
190.865276
 30
0.0
 10
177.052069
 20
190.865276
 30
0.0
 10
176.702599
 20
190.865276
 30
0.0
 10
176.353679
 20
190.865276
 30
0.0
 10
176.004759
 20
190.865276
 30
0.0
 10
175.655289
 20
190.865276
 30
0.0
 10
175.306369
 20
190.865276
 30
0.0
 10
174.956899
 20
190.865276
 30
0.0
 10
174.607982
 20
190.865276
 30
0.0
 10
174.259062
 20
190.865276
 30
0.0
 10
173.909592
 20
190.865276
 30
0.0
 10
173.560672
 20
190.865276
 30
0.0
 10
173.211202
 20
190.865276
 30
0.0
 10
172.862282
 20
190.865276
 30
0.0
 10
172.513363
 20
190.865276
 30
0.0
 10
172.163892
 20
190.865276
 30
0.0
 10
171.814975
 20
190.865276
 30
0.0
 10
171.466056
 20
190.865276
 30
0.0
 10
171.329356
 20
190.865276
 30
0.0
 10
171.329920
 20
188.389767
 30
0.0
 10
163.648184
 20
188.389767
 30
0.0
 10
163.648184
 20
190.865276
 30
0.0
 10
163.435967
 20
190.865276
 30
0.0
 10
163.086497
 20
190.865276
 30
0.0
 10
162.737577
 20
190.865276
 30
0.0
 10
162.388107
 20
190.865276
 30
0.0
 10
162.039187
 20
190.865276
 30
0.0
 10
161.690267
 20
190.865276
 30
0.0
 10
161.340797
 20
190.865276
 30
0.0
 10
160.991877
 20
190.865276
 30
0.0
 10
160.642407
 20
190.865276
 30
0.0
 10
160.293487
 20
190.865276
 30
0.0
 10
159.944568
 20
190.865276
 30
0.0
 10
159.595098
 20
190.865276
 30
0.0
 10
159.246181
 20
190.865276
 30
0.0
 10
158.896708
 20
190.865276
 30
0.0
 10
158.547791
 20
190.865276
 30
0.0
 10
158.198871
 20
190.865276
 30
0.0
 10
157.849401
 20
190.865276
 30
0.0
 10
157.500481
 20
190.865276
 30
0.0
 10
157.151011
 20
190.865276
 30
0.0
 10
156.802091
 20
190.865276
 30
0.0
 10
156.453171
 20
190.865276
 30
0.0
 10
156.103701
 20
190.865276
 30
0.0
 10
155.754781
 20
190.865276
 30
0.0
 10
155.405861
 20
190.865276
 30
0.0
 10
155.056391
 20
190.865276
 30
0.0
 10
154.707471
 20
190.865276
 30
0.0
 10
154.358001
 20
190.865276
 30
0.0
 10
154.009082
 20
190.865276
 30
0.0
 10
153.660165
 20
190.865276
 30
0.0
 10
153.310692
 20
190.865276
 30
0.0
 10
152.961775
 20
190.865276
 30
0.0
 10
152.612304
 20
190.865276
 30
0.0
 10
152.263385
 20
190.865276
 30
0.0
 10
151.914465
 20
190.865276
 30
0.0
 10
151.564995
 20
190.865276
 30
0.0
 10
151.216075
 20
190.865276
 30
0.0
 10
150.866605
 20
190.865276
 30
0.0
 10
150.517685
 20
190.865276
 30
0.0
 10
150.168765
 20
190.865276
 30
0.0
 10
149.819295
 20
190.865276
 30
0.0
 10
149.470375
 20
190.865276
 30
0.0
 10
149.120905
 20
190.865276
 30
0.0
 10
148.771985
 20
190.865276
 30
0.0
 10
148.423068
 20
190.865276
 30
0.0
 10
148.073595
 20
190.865276
 30
0.0
 10
147.724678
 20
190.865276
 30
0.0
 10
147.375759
 20
190.865276
 30
0.0
 10
147.026289
 20
190.865276
 30
0.0
 10
146.677369
 20
190.865276
 30
0.0
 10
146.217654
 20
190.865276
 30
0.0
 10
146.217646
 20
190.865251
 30
0.0
  0
LWPOLYLINE
  5
178
100
AcDbEntity
  8
Layer_1
 62
7
100
AcDbPolyline
 90
9
 70
1
 10
0.000000
 20
0.000001
 30
0.0
 10
0.829028
 20
1.790334
 30
0.0
 10
1.058333
 20
1.252362
 30
0.0
 10
2.989791
 20
3.183807
 30
0.0
 10
2.989791
 20
3.183807
 30
0.0
 10
3.183819
 20
2.989779
 30
0.0
 10
1.252361
 20
1.058335
 30
0.0
 10
1.790347
 20
0.829029
 30
0.0
 10
0.000000
 20
0.000001
 30
0.0
  0
LWPOLYLINE
  5
179
100
AcDbEntity
  8
Layer_1
 62
7
100
AcDbPolyline
 90
9
 70
1
 10
100.000000
 20
0.000001
 30
0.0
 10
100.829028
 20
1.790334
 30
0.0
 10
101.058334
 20
1.252362
 30
0.0
 10
102.989792
 20
3.183807
 30
0.0
 10
102.989792
 20
3.183807
 30
0.0
 10
103.183820
 20
2.989779
 30
0.0
 10
101.252361
 20
1.058335
 30
0.0
 10
101.790348
 20
0.829029
 30
0.0
 10
100.000000
 20
0.000001
 30
0.0
  0
ENDSEC
  0
SECTION
  2
OBJECTS
  0
DICTIONARY
  5
C
330
0
100
AcDbDictionary
  3
ACAD_GROUP
350
D
  3
ACAD_MLINESTYLE
350
17
  0
DICTIONARY
  5
D
330
C
100
AcDbDictionary
  0
DICTIONARY
  5
1A
330
C
100
AcDbDictionary
  0
DICTIONARY
  5
17
330
C
100
AcDbDictionary
  3
STANDARD
350
18
  0
DICTIONARY
  5
19
330
C
100
AcDbDictionary
  0
ENDSEC
  0
EOF
